<svg width="570" height="541" viewBox="0 0 570 541" fill="none" xmlns="http://www.w3.org/2000/svg">
<path d="M256 444C378.607 444 478 344.607 478 222C478 99.3928 378.607 0 256 0C133.393 0 34 99.3928 34 222C34 344.607 133.393 444 256 444Z" fill="#F7FBFF"/>
<path d="M503.106 262L570 300.929L402.167 397L335 358.618L503.106 262Z" fill="#FFD739"/>
<path d="M291.145 244L407 311.477L116.328 478L0 411.471L291.145 244Z" fill="#FF6F61"/>
<path d="M29 196C30.1046 196 31 195.105 31 194C31 192.895 30.1046 192 29 192C27.8954 192 27 192.895 27 194C27 195.105 27.8954 196 29 196Z" fill="#FFD739"/>
<path d="M29 253C30.1046 253 31 252.105 31 251C31 249.895 30.1046 249 29 249C27.8954 249 27 249.895 27 251C27 252.105 27.8954 253 29 253Z" fill="#FFD739"/>
<path d="M29 215C30.1046 215 31 214.105 31 213C31 211.895 30.1046 211 29 211C27.8954 211 27 211.895 27 213C27 214.105 27.8954 215 29 215Z" fill="#FFD739"/>
<path d="M29 272C30.1046 272 31 271.105 31 270C31 268.895 30.1046 268 29 268C27.8954 268 27 268.895 27 270C27 271.105 27.8954 272 29 272Z" fill="#FFD739"/>
<path d="M29 234C30.1046 234 31 233.105 31 232C31 230.895 30.1046 230 29 230C27.8954 230 27 230.895 27 232C27 233.105 27.8954 234 29 234Z" fill="#FFD739"/>
<path d="M29 291C30.1046 291 31 290.105 31 289C31 287.895 30.1046 287 29 287C27.8954 287 27 287.895 27 289C27 290.105 27.8954 291 29 291Z" fill="#FFD739"/>
<path d="M86 196C87.1046 196 88 195.105 88 194C88 192.895 87.1046 192 86 192C84.8954 192 84 192.895 84 194C84 195.105 84.8954 196 86 196Z" fill="#FFD739"/>
<path d="M143 196C144.105 196 145 195.105 145 194C145 192.895 144.105 192 143 192C141.895 192 141 192.895 141 194C141 195.105 141.895 196 143 196Z" fill="#FFD739"/>
<path d="M86 253C87.1046 253 88 252.105 88 251C88 249.895 87.1046 249 86 249C84.8954 249 84 249.895 84 251C84 252.105 84.8954 253 86 253Z" fill="#FFD739"/>
<path d="M143 253C144.105 253 145 252.105 145 251C145 249.895 144.105 249 143 249C141.895 249 141 249.895 141 251C141 252.105 141.895 253 143 253Z" fill="#FFD739"/>
<path d="M86 215C87.1046 215 88 214.105 88 213C88 211.895 87.1046 211 86 211C84.8954 211 84 211.895 84 213C84 214.105 84.8954 215 86 215Z" fill="#FFD739"/>
<path d="M143 215C144.105 215 145 214.105 145 213C145 211.895 144.105 211 143 211C141.895 211 141 211.895 141 213C141 214.105 141.895 215 143 215Z" fill="#FFD739"/>
<path d="M86 272C87.1046 272 88 271.105 88 270C88 268.895 87.1046 268 86 268C84.8954 268 84 268.895 84 270C84 271.105 84.8954 272 86 272Z" fill="#FFD739"/>
<path d="M143 272C144.105 272 145 271.105 145 270C145 268.895 144.105 268 143 268C141.895 268 141 268.895 141 270C141 271.105 141.895 272 143 272Z" fill="#FFD739"/>
<path d="M86 234C87.1046 234 88 233.105 88 232C88 230.895 87.1046 230 86 230C84.8954 230 84 230.895 84 232C84 233.105 84.8954 234 86 234Z" fill="#FFD739"/>
<path d="M143 234C144.105 234 145 233.105 145 232C145 230.895 144.105 230 143 230C141.895 230 141 230.895 141 232C141 233.105 141.895 234 143 234Z" fill="#FFD739"/>
<path d="M86 291C87.1046 291 88 290.105 88 289C88 287.895 87.1046 287 86 287C84.8954 287 84 287.895 84 289C84 290.105 84.8954 291 86 291Z" fill="#FFD739"/>
<path d="M143 291C144.105 291 145 290.105 145 289C145 287.895 144.105 287 143 287C141.895 287 141 287.895 141 289C141 290.105 141.895 291 143 291Z" fill="#FFD739"/>
<path d="M48 196C49.1046 196 50 195.105 50 194C50 192.895 49.1046 192 48 192C46.8954 192 46 192.895 46 194C46 195.105 46.8954 196 48 196Z" fill="#FFD739"/>
<path d="M48 253C49.1046 253 50 252.105 50 251C50 249.895 49.1046 249 48 249C46.8954 249 46 249.895 46 251C46 252.105 46.8954 253 48 253Z" fill="#FFD739"/>
<path d="M48 215C49.1046 215 50 214.105 50 213C50 211.895 49.1046 211 48 211C46.8954 211 46 211.895 46 213C46 214.105 46.8954 215 48 215Z" fill="#FFD739"/>
<path d="M48 272C49.1046 272 50 271.105 50 270C50 268.895 49.1046 268 48 268C46.8954 268 46 268.895 46 270C46 271.105 46.8954 272 48 272Z" fill="#FFD739"/>
<path d="M48 234C49.1046 234 50 233.105 50 232C50 230.895 49.1046 230 48 230C46.8954 230 46 230.895 46 232C46 233.105 46.8954 234 48 234Z" fill="#FFD739"/>
<path d="M48 291C49.1046 291 50 290.105 50 289C50 287.895 49.1046 287 48 287C46.8954 287 46 287.895 46 289C46 290.105 46.8954 291 48 291Z" fill="#FFD739"/>
<path d="M105 196C106.105 196 107 195.105 107 194C107 192.895 106.105 192 105 192C103.895 192 103 192.895 103 194C103 195.105 103.895 196 105 196Z" fill="#FFD739"/>
<path d="M162 196C163.105 196 164 195.105 164 194C164 192.895 163.105 192 162 192C160.895 192 160 192.895 160 194C160 195.105 160.895 196 162 196Z" fill="#FFD739"/>
<path d="M105 253C106.105 253 107 252.105 107 251C107 249.895 106.105 249 105 249C103.895 249 103 249.895 103 251C103 252.105 103.895 253 105 253Z" fill="#FFD739"/>
<path d="M162 253C163.105 253 164 252.105 164 251C164 249.895 163.105 249 162 249C160.895 249 160 249.895 160 251C160 252.105 160.895 253 162 253Z" fill="#FFD739"/>
<path d="M105 215C106.105 215 107 214.105 107 213C107 211.895 106.105 211 105 211C103.895 211 103 211.895 103 213C103 214.105 103.895 215 105 215Z" fill="#FFD739"/>
<path d="M162 215C163.105 215 164 214.105 164 213C164 211.895 163.105 211 162 211C160.895 211 160 211.895 160 213C160 214.105 160.895 215 162 215Z" fill="#FFD739"/>
<path d="M105 272C106.105 272 107 271.105 107 270C107 268.895 106.105 268 105 268C103.895 268 103 268.895 103 270C103 271.105 103.895 272 105 272Z" fill="#FFD739"/>
<path d="M162 272C163.105 272 164 271.105 164 270C164 268.895 163.105 268 162 268C160.895 268 160 268.895 160 270C160 271.105 160.895 272 162 272Z" fill="#FFD739"/>
<path d="M105 234C106.105 234 107 233.105 107 232C107 230.895 106.105 230 105 230C103.895 230 103 230.895 103 232C103 233.105 103.895 234 105 234Z" fill="#FFD739"/>
<path d="M162 234C163.105 234 164 233.105 164 232C164 230.895 163.105 230 162 230C160.895 230 160 230.895 160 232C160 233.105 160.895 234 162 234Z" fill="#FFD739"/>
<path d="M105 291C106.105 291 107 290.105 107 289C107 287.895 106.105 287 105 287C103.895 287 103 287.895 103 289C103 290.105 103.895 291 105 291Z" fill="#FFD739"/>
<path d="M162 291C163.105 291 164 290.105 164 289C164 287.895 163.105 287 162 287C160.895 287 160 287.895 160 289C160 290.105 160.895 291 162 291Z" fill="#FFD739"/>
<path d="M67 196C68.1046 196 69 195.105 69 194C69 192.895 68.1046 192 67 192C65.8954 192 65 192.895 65 194C65 195.105 65.8954 196 67 196Z" fill="#FFD739"/>
<path d="M67 253C68.1046 253 69 252.105 69 251C69 249.895 68.1046 249 67 249C65.8954 249 65 249.895 65 251C65 252.105 65.8954 253 67 253Z" fill="#FFD739"/>
<path d="M67 215C68.1046 215 69 214.105 69 213C69 211.895 68.1046 211 67 211C65.8954 211 65 211.895 65 213C65 214.105 65.8954 215 67 215Z" fill="#FFD739"/>
<path d="M67 272C68.1046 272 69 271.105 69 270C69 268.895 68.1046 268 67 268C65.8954 268 65 268.895 65 270C65 271.105 65.8954 272 67 272Z" fill="#FFD739"/>
<path d="M67 234C68.1046 234 69 233.105 69 232C69 230.895 68.1046 230 67 230C65.8954 230 65 230.895 65 232C65 233.105 65.8954 234 67 234Z" fill="#FFD739"/>
<path d="M67 291C68.1046 291 69 290.105 69 289C69 287.895 68.1046 287 67 287C65.8954 287 65 287.895 65 289C65 290.105 65.8954 291 67 291Z" fill="#FFD739"/>
<path d="M124 196C125.105 196 126 195.105 126 194C126 192.895 125.105 192 124 192C122.895 192 122 192.895 122 194C122 195.105 122.895 196 124 196Z" fill="#FFD739"/>
<path d="M124 253C125.105 253 126 252.105 126 251C126 249.895 125.105 249 124 249C122.895 249 122 249.895 122 251C122 252.105 122.895 253 124 253Z" fill="#FFD739"/>
<path d="M124 215C125.105 215 126 214.105 126 213C126 211.895 125.105 211 124 211C122.895 211 122 211.895 122 213C122 214.105 122.895 215 124 215Z" fill="#FFD739"/>
<path d="M124 272C125.105 272 126 271.105 126 270C126 268.895 125.105 268 124 268C122.895 268 122 268.895 122 270C122 271.105 122.895 272 124 272Z" fill="#FFD739"/>
<path d="M124 234C125.105 234 126 233.105 126 232C126 230.895 125.105 230 124 230C122.895 230 122 230.895 122 232C122 233.105 122.895 234 124 234Z" fill="#FFD739"/>
<path d="M124 291C125.105 291 126 290.105 126 289C126 287.895 125.105 287 124 287C122.895 287 122 287.895 122 289C122 290.105 122.895 291 124 291Z" fill="#FFD739"/>
<path d="M508.752 520.271C505.052 517.296 502.78 518.015 498.426 515.338C498.046 515.104 497.978 514.911 498.272 514.548C498.871 513.807 498.853 513.079 498.31 512.463C496.048 509.898 490.064 504.663 487.08 503.453C485.388 502.765 486.454 502.566 477.597 499.742C476.42 499.368 476.856 499.535 466.682 497.474C466.176 497.8 466.554 497.762 465.027 497.326C463.879 497 462.701 496.729 461.259 496.828C461.009 496.846 460.764 496.726 460.54 496.65C458.729 496.026 454.647 495.671 451.417 494.641C447.435 493.372 446.474 492.728 442.473 491.12C440.77 490.434 437.506 489.361 435.664 488.609C433.723 487.818 433.6 483.931 426.107 480.301C422.46 478.535 418.784 476.791 415.11 475.044C414.991 474.987 414.778 474.997 414.612 474.972C414.308 474.925 414.607 475.127 412.565 473.462C412.523 473.428 412.496 473.385 412.453 473.335C412.572 473.31 412.671 473.29 412.769 473.267C412.79 473.232 411.693 471.786 410.295 471.197C409.912 471.034 409.542 470.991 409.013 471.106C406.96 471.552 405.717 472.476 405.103 473.618C403.738 476.158 401.064 470.387 400.136 472.945C399.417 474.924 402.69 476.285 404.494 474.654C406.832 472.54 406.633 480.652 410.532 477.738C410.638 477.658 410.885 477.635 411.071 477.598C411.221 477.567 410.491 477.359 420.998 484.76C424.066 486.924 424.204 486.6 426.927 489.46C428.147 490.74 427.881 490.85 430.033 492.328C442.989 501.215 442.225 500.593 442.209 500.765C438.265 499.924 439.818 499.866 423.702 494.82C422.171 494.341 421.867 494.267 421.198 493.674C417.929 490.773 416.399 489.059 411.354 487.307C409.736 486.745 399.088 482.822 398.027 482.763C397.896 482.757 397.726 482.773 397.643 482.732C397.096 482.468 396.711 482.148 396.47 481.72C395.764 480.468 394.392 478.742 392.213 478.415C391.201 478.262 390.549 478.414 389.83 478.982C387.134 481.111 387.897 473.937 385.865 475.971C384.881 476.956 384.188 478.173 383.742 479.237C383.348 480.177 383.853 480.899 384.735 481.502C385.216 481.829 385.849 482.066 386.783 481.904C388.213 481.657 388.527 483.589 391.378 480.769C391.699 480.452 391.36 483.346 393.095 482.087C392.851 482.137 392.698 482.168 392.523 482.203C393.091 481.779 393.964 485.066 394.555 485.082C395.063 485.099 394.556 485.404 396.07 486.214C417.674 497.744 407.748 491.852 415.899 497.592C416.739 498.182 417.735 498.69 418.593 499.273C427.465 505.308 427.526 506.64 438.815 510.495C455.233 516.101 460.389 513.527 465.084 518.009C458.176 518.699 459.548 518.584 457.52 519.05C457.186 519.128 455.702 519.742 453.279 520.073C447.447 520.874 445.654 521.639 436.615 524.585C436.286 524.692 436.357 524.923 436.355 525.615C433.828 525.991 431.619 526.109 430.493 526.53C423.114 529.275 425.701 528.437 429.222 528.01C427.848 528.617 424.126 530.076 424.536 530.872C425.46 530.617 425.357 530.634 425.393 530.658C424.853 530.955 424.104 531.308 424.908 531.315C425.761 531.32 425.905 531.196 428.095 530.404C428.616 530.213 429.014 529.857 425.988 532.055C426.005 532.062 426.022 532.071 426.038 532.077C430.019 531.066 431.62 529.279 433.663 529.466C434.331 529.529 433.309 529.991 433.768 531.309C433.806 531.419 433.963 531.502 434.066 531.597C434.214 531.497 434.422 531.401 434.501 531.288C436.418 528.501 435.588 529.012 437.856 527.142C439.24 527.867 438.214 527.741 442.006 526.669C448.1 524.946 448.595 524.991 452.889 523.917C458.038 522.633 453.972 522.677 464.238 522.71C466.755 522.717 468.853 522.825 474.448 523.46C478.535 523.922 480.728 523.038 485.897 521.419C486.861 521.116 486.529 521.053 488.803 522.521C488.385 522.774 488.685 522.564 487.196 523.584C486.593 524.001 487.666 523.942 490.268 526.407C491.174 527.264 493.25 526.937 494.009 527.559C494.37 527.855 494.735 528.152 495.034 528.475C495.748 529.253 496.848 529.105 497.438 529.319C503.069 531.364 514.269 524.707 508.752 520.271Z" fill="url(#paint0_linear)"/>
<path d="M445.661 301.761C445.325 302.077 444.401 302.739 445.586 303.06C446.734 303.372 448.326 303.324 449.617 303.102C452.362 302.631 457.392 301.674 459.775 302.354C459.685 302.679 459.587 302.994 459.524 303.31C459.439 303.737 469.16 310.834 469.123 311.33C468.419 320.625 468.716 326.206 468.716 326.211C468.658 327.543 470.054 327.781 481.142 333.279C483.166 334.283 483.382 334.601 487.124 336.105C496.188 339.743 503.235 341.738 505.078 342.61C513.695 346.68 516.889 347.608 518.828 349.049C517.813 348.844 516.919 348.629 515.392 348.5C509.028 347.957 507.529 347.188 505.791 349.85C505.234 350.705 504.541 351.536 504.129 353.341C503.566 355.791 503.34 358.243 503.154 360.693C503.144 360.832 503.33 360.974 503.468 361.095C503.991 361.547 504.355 361.118 503.099 361.904C501.773 362.736 500.643 365.195 500.304 366.277C500.078 367.003 500.314 367.529 500.723 367.86C500.902 368.006 501.04 367.991 501.261 367.792C501.512 368.669 501.256 368.575 502.607 368.221C502.795 368.444 502.845 368.762 503.295 369C503.677 368.338 503.76 367.701 504.006 367.076C504.126 367.46 504.058 367.87 504.43 368.216C504.601 368.055 504.752 367.898 504.797 367.736C505.086 366.649 505.389 365.162 505.513 364.821C505.683 364.346 506.768 363.944 507.012 364.429C507.15 364.71 506.987 365.193 507.72 365.673C508.772 363.941 509.895 362.46 508.25 361.603C507.999 361.474 507.718 361.363 507.429 361.236C509.315 360.69 507.841 361.125 508.772 359.285C511.346 354.214 510.357 356.337 512.117 352.457C512.225 352.214 512.107 352.244 512.617 352.348C522.349 354.34 524.265 354.793 531.814 356.097C534.378 356.542 536.003 355.361 536.993 354.772C537.826 355.743 538.738 356.891 540.293 357.47C541.501 357.917 542.123 358.367 543.467 359.126C544.107 359.487 543.48 359.421 543.294 359.611C546.034 361.992 554.381 360.455 557.701 357.657C558.45 357.025 558.314 356.901 558.54 357.045C559.434 357.604 561.232 357.786 562.604 357.194C562.626 357.184 562.664 357.189 562.697 357.187C563.719 356.577 563.314 356.81 563.46 356.673C564.934 355.301 563.211 353.66 560.449 353.895C559.919 353.079 559.236 351.615 556.147 349.645C554.083 348.331 550.778 346.771 547.583 347.085C549.052 347.76 550.444 348.417 551.682 349.173C550.275 348.804 548.856 348.5 547.201 348.71C549.052 349.597 551.074 350.353 552.799 351.322C552.553 351.329 550.938 351.109 549.56 351.003C547.651 350.859 547.352 351.165 547.116 351.061C545.566 350.379 546.212 350.639 544.778 349.648C544.459 349.428 545.142 349.122 545.546 348.27C546.928 345.371 549.258 343.427 548.198 341.847C547.161 340.299 545.609 338.96 543.716 337.754C536.699 333.292 542.154 336.204 532.979 331.006C532.364 330.721 531.324 330.132 530.97 329.919C529.732 329.171 526.756 329.1 524.89 329.237C515.184 329.952 523.15 330.701 512.328 324.353C510.937 323.537 510.909 323.534 508.878 323.385C508.278 323.341 491.323 318.116 489.121 317.355C487.827 316.909 486.614 316.395 485.047 316.25C483.666 316.123 484.979 315.621 482.217 312.306C481.15 311.025 479.778 309.871 478.184 308.813C477.875 308.608 477.985 308.343 477.832 308.119C477.583 307.749 481.996 306.529 480.241 305.562C472.963 301.553 473.739 301.877 472.902 301.522C471.579 300.959 470.022 300.683 468.289 300.74C467.576 300.764 466.875 300.848 466.644 301.392C466.189 301.067 465.707 300.748 465.489 300.616C464.713 300.14 464.03 300.583 463.927 300.439C463.708 300.132 463.399 299.832 463.331 299.504C463.264 299.166 463.221 298.837 462.832 298.593C461.395 297.696 460.682 297.949 458.683 298.482C452.465 300.14 453.366 298.254 446.661 301.166C446.327 301.365 445.995 301.563 445.661 301.761Z" fill="url(#paint1_linear)"/>
<path fill-rule="evenodd" clip-rule="evenodd" d="M429.34 208.914C429.34 208.914 433.272 210.718 434.001 211.868C434.732 213.018 434.573 213.713 434.493 214.33C434.414 214.947 433.266 217.038 433.266 217.038C433.266 217.038 431.291 217.384 429.83 217.038C428.37 216.692 423.649 214.157 422.713 212.853C421.778 211.549 421.968 210.757 422.468 211.13C422.968 211.503 421.582 210.177 421.977 209.899C422.373 209.62 422.959 209.653 422.959 209.653C422.959 209.653 421.955 207.741 422.713 208.175C423.472 208.61 425.413 210.145 425.413 210.145C425.413 210.145 423.664 208.2 424.186 208.175C424.707 208.151 426.657 209.692 427.376 210.391C428.095 211.09 428.878 211.866 429.585 211.868C430.292 211.87 430.821 211.471 430.076 210.637C429.331 209.804 429.34 208.914 429.34 208.914Z" fill="#FFDBCD"/>
<path fill-rule="evenodd" clip-rule="evenodd" d="M455.108 239.687C455.108 239.687 450.066 260.011 449.955 267.261C449.841 274.51 448.289 285.218 449.217 286.955C450.145 288.694 464.891 303.557 467.131 305.666C469.372 307.775 474.002 312.313 474.002 312.313L477.441 303.697C477.441 303.697 468.122 291.624 464.68 288.679C461.234 285.734 458.297 284.494 458.297 284.494C458.297 284.494 461.109 274.185 463.204 270.215C465.303 266.245 469.587 253.474 469.587 253.474L469.095 244.119L455.108 239.687Z" fill="#1F324F"/>
<path fill-rule="evenodd" clip-rule="evenodd" d="M478.421 303.943C478.421 303.943 482.227 303.103 482.102 305.174C482.026 306.4 481.971 312.674 482.078 314.12C482.324 317.487 479.969 320.849 478.622 320.928C477.275 321.009 476.097 317.456 476.17 316.993C476.243 316.53 476.312 309.556 476.485 309.236C476.655 308.916 475.89 304.38 478.421 303.943Z" fill="#253955"/>
<path fill-rule="evenodd" clip-rule="evenodd" d="M477.801 325.457C477.801 325.457 479.325 326.387 478.421 328.808C477.93 330.125 474.335 330.236 471.346 333.366C469.03 335.793 462.855 336.626 461.931 335.369C461.002 334.111 463.61 331.729 464.095 331.503C464.58 331.279 471.204 326.89 471.613 326.852C472.022 326.814 477.663 323.857 477.801 325.457Z" fill="#253955"/>
<path fill-rule="evenodd" clip-rule="evenodd" d="M471.914 319.566C471.914 319.566 472.52 321.828 472.423 323.173C472.229 325.958 470.536 327.009 469.359 328.067C468.181 329.124 464.14 331.145 465.272 332.188C466.401 333.231 468.718 333.409 471.658 330.9C475.512 327.612 478.691 327.515 477.791 325.491C475.724 320.845 477.535 316.991 477.535 316.991L471.914 319.566Z" fill="#FFDBCD"/>
<path fill-rule="evenodd" clip-rule="evenodd" d="M471.309 306.031C471.309 306.031 473.449 306.664 474.495 307.413C476.655 308.967 476.659 310.882 476.926 312.378C477.192 313.874 476.808 318.201 478.221 317.795C479.634 317.389 480.943 315.574 480.382 311.905C479.647 307.097 481.164 304.438 479.069 304.165C474.259 303.54 472.039 300.127 472.039 300.127L471.309 306.031Z" fill="#FFDBCD"/>
<path fill-rule="evenodd" clip-rule="evenodd" d="M480.17 261.061C480.17 261.061 475.18 279.533 474.692 281.041C474.203 282.548 473.809 285.896 473.362 286.844C472.915 287.792 472.16 288.708 472.624 289.243C473.092 289.779 475.841 294.28 476.659 300.543C477.479 306.807 477.781 319.041 477.871 320.216C477.961 321.392 478.345 322.807 477.791 323.426C477.237 324.044 473.376 325.123 472.711 324.886C472.046 324.65 470.637 323.437 470.637 323.437C470.637 323.437 466.481 295.61 465.733 293.984C464.982 292.358 464.739 291.031 464.687 289.67C464.639 288.31 464.195 275.7 464.008 274.506C463.821 273.312 464.497 266.056 463.953 262.87C463.333 259.217 462.152 250.544 463.309 244.177C464.469 237.809 462.724 235.805 462.724 235.805L477.421 241.973C477.421 241.973 479.855 252.761 480.499 255.403C481.143 258.045 480.17 261.061 480.17 261.061Z" fill="#1F324F"/>
<mask id="mask0" mask-type="alpha" maskUnits="userSpaceOnUse" x="462" y="235" width="19" height="90">
<path fill-rule="evenodd" clip-rule="evenodd" d="M480.17 261.061C480.17 261.061 475.18 279.533 474.692 281.041C474.203 282.548 473.809 285.896 473.362 286.844C472.915 287.792 472.16 288.708 472.624 289.243C473.092 289.779 475.841 294.28 476.659 300.543C477.479 306.807 477.781 319.041 477.871 320.216C477.961 321.392 478.345 322.807 477.791 323.426C477.237 324.044 473.376 325.123 472.711 324.886C472.046 324.65 470.637 323.437 470.637 323.437C470.637 323.437 466.481 295.61 465.733 293.984C464.982 292.358 464.739 291.031 464.687 289.67C464.639 288.31 464.195 275.7 464.008 274.506C463.821 273.312 464.497 266.056 463.953 262.87C463.333 259.217 462.152 250.544 463.309 244.177C464.469 237.809 462.724 235.805 462.724 235.805L477.421 241.973C477.421 241.973 479.855 252.761 480.499 255.403C481.143 258.045 480.17 261.061 480.17 261.061Z" fill="white"/>
</mask>
<g mask="url(#mask0)">
<path fill-rule="evenodd" clip-rule="evenodd" d="M477.719 261.061C477.719 261.061 472.725 279.533 472.237 281.041C471.748 282.548 471.354 285.896 470.907 286.844C470.464 287.792 469.705 288.708 470.173 289.243C470.64 289.779 473.386 294.28 474.207 300.543C475.024 306.807 475.326 319.041 475.416 320.216C475.506 321.392 475.89 322.807 475.339 323.426C474.785 324.044 470.921 325.123 470.256 324.886C469.591 324.65 468.181 323.437 468.181 323.437C468.181 323.437 464.026 295.61 463.278 293.984C462.53 292.358 462.284 291.031 462.236 289.67C462.184 288.31 461.74 275.7 461.553 274.506C461.366 273.312 462.042 266.056 461.501 262.87C460.878 259.217 459.697 250.544 460.857 244.177C462.014 237.809 460.269 235.805 460.269 235.805L474.965 241.973C474.965 241.973 477.403 252.761 478.044 255.403C478.688 258.045 477.719 261.061 477.719 261.061Z" fill="#2A425D"/>
</g>
<path fill-rule="evenodd" clip-rule="evenodd" d="M461.733 206.944C461.733 206.944 461.113 209.366 464.434 209.899C467.752 210.432 469.268 210.442 470.567 209.899C471.866 209.355 473.76 208.914 473.76 208.914C473.76 208.914 470.016 224.824 470.079 225.163C470.138 225.501 471.55 241.165 471.55 241.165L471.796 245.103V250.52C471.796 250.52 463.516 250.246 459.523 246.335C455.534 242.423 454.862 240.18 454.862 240.18L455.108 236.979L457.318 217.777L460.015 208.914L461.733 206.698" fill="#F7FBFF"/>
<mask id="mask1" mask-type="alpha" maskUnits="userSpaceOnUse" x="454" y="206" width="20" height="45">
<path fill-rule="evenodd" clip-rule="evenodd" d="M461.733 206.944C461.733 206.944 461.113 209.366 464.434 209.899C467.752 210.432 469.268 210.442 470.567 209.899C471.866 209.355 473.76 208.914 473.76 208.914C473.76 208.914 470.016 224.824 470.079 225.163C470.138 225.501 471.55 241.165 471.55 241.165L471.796 245.103V250.52C471.796 250.52 463.516 250.246 459.523 246.335C455.534 242.423 454.862 240.18 454.862 240.18L455.108 236.979L457.318 217.777L460.015 208.914L461.733 206.698" fill="white"/>
</mask>
<g mask="url(#mask1)">
<path fill-rule="evenodd" clip-rule="evenodd" d="M468.116 227.378C468.116 227.378 464.864 227.56 462.959 224.424C461.958 222.771 461.037 223.56 459.524 223.439C458.772 223.379 457.072 221.716 457.072 221.716L456.826 223.685C456.826 223.685 458.409 224.579 459.278 224.916C460.151 225.253 461.394 225.289 462.717 226.147C464.036 227.005 467.042 229.552 467.624 230.086C468.202 230.621 471.637 230.649 472.285 230.579" fill="#C1D5EB"/>
</g>
<path fill-rule="evenodd" clip-rule="evenodd" d="M461.979 200.79C461.979 200.79 458.693 199.986 457.072 202.513C455.448 205.04 448.238 222.454 448.238 222.454C448.238 222.454 446.319 221.063 444.311 219.992C442.302 218.922 438.735 216.863 437.437 216.054C436.142 215.244 435.473 214.33 435.473 214.33C435.473 214.33 432.364 215.349 432.039 216.546C431.714 217.742 432.039 218.515 432.039 218.515C432.039 218.515 441.682 227.966 444.311 229.101C446.936 230.237 448.695 231.76 450.444 230.825C452.196 229.89 453.799 226.177 455.108 224.424C456.417 222.671 458.298 216.054 458.298 216.054L462.225 205.467L461.979 200.79Z" fill="#0644BF"/>
<path fill-rule="evenodd" clip-rule="evenodd" d="M475.796 181.399C481.382 183.687 482.677 199.405 478.092 202.469C478.792 195.507 478.781 190.101 473.573 184.371C470.335 180.807 474.754 182.733 475.796 181.399Z" fill="#162B43"/>
<path fill-rule="evenodd" clip-rule="evenodd" d="M474.272 181.571C479.858 183.86 480.443 197.726 475.862 200.79C476.558 193.828 478.061 189.798 472.853 184.068C469.615 180.503 473.23 182.905 474.272 181.571Z" fill="#162B43"/>
<path fill-rule="evenodd" clip-rule="evenodd" d="M464.434 203.252C464.434 203.252 460.916 208.368 462.471 209.653C464.022 210.937 465.778 210.947 467.378 211.13C468.974 211.312 470.221 210.573 471.305 209.899C472.389 209.225 475.478 204.729 475.478 204.729L472.531 203.005" fill="#FFDCCD"/>
<path fill-rule="evenodd" clip-rule="evenodd" d="M461.241 201.036C461.241 201.036 471.357 199.917 475.477 202.513C479.598 205.109 482.594 205.398 483.574 207.191C484.554 208.983 483.134 225.157 481.365 227.871C479.598 230.584 476.457 237.054 477.441 239.442C478.421 241.829 480.215 245.947 480.876 250.274C481.534 254.6 481.365 259.382 481.365 259.382C481.365 259.382 479.263 263.878 476.212 264.306C473.161 264.734 467.378 264.06 467.378 264.06C467.378 264.06 470.099 247.31 469.833 241.411C469.563 235.512 467.433 229.186 468.358 222.7C469.286 216.215 470.373 211.046 472.285 208.668C474.2 206.289 475.2 204.29 471.796 202.513C468.389 200.736 465.109 203.092 464.188 204.483C463.267 205.873 458.443 216.442 458.052 218.515C457.664 220.588 458.235 221.936 458.052 224.178C457.868 226.419 456.237 234.881 455.842 235.995C455.448 237.108 454.862 239.934 454.862 239.934C454.862 239.934 456.604 225.936 456.58 223.193C456.556 220.449 455.628 212.448 456.334 209.16C457.041 205.873 456.781 204.795 458.052 203.252C459.323 201.708 461.241 201.036 461.241 201.036Z" fill="#2D67F7"/>
<mask id="mask2" mask-type="alpha" maskUnits="userSpaceOnUse" x="454" y="200" width="30" height="65">
<path fill-rule="evenodd" clip-rule="evenodd" d="M461.241 201.036C461.241 201.036 471.357 199.917 475.477 202.513C479.598 205.109 482.594 205.398 483.574 207.191C484.554 208.983 483.134 225.157 481.365 227.871C479.598 230.584 476.457 237.054 477.441 239.442C478.421 241.829 480.215 245.947 480.876 250.274C481.534 254.6 481.365 259.382 481.365 259.382C481.365 259.382 479.263 263.878 476.212 264.306C473.161 264.734 467.378 264.06 467.378 264.06C467.378 264.06 470.099 247.31 469.833 241.411C469.563 235.512 467.433 229.186 468.358 222.7C469.286 216.215 470.373 211.046 472.285 208.668C474.2 206.289 475.2 204.29 471.796 202.513C468.389 200.736 465.109 203.092 464.188 204.483C463.267 205.873 458.443 216.442 458.052 218.515C457.664 220.588 458.235 221.936 458.052 224.178C457.868 226.419 456.237 234.881 455.842 235.995C455.448 237.108 454.862 239.934 454.862 239.934C454.862 239.934 456.604 225.936 456.58 223.193C456.556 220.449 455.628 212.448 456.334 209.16C457.041 205.873 456.781 204.795 458.052 203.252C459.323 201.708 461.241 201.036 461.241 201.036Z" fill="white"/>
</mask>
<g mask="url(#mask2)">
<path fill-rule="evenodd" clip-rule="evenodd" d="M483.328 205.221C483.328 205.221 479.425 202.417 474.986 208.421C472.389 211.933 473.93 217.729 474.002 220.731C474.079 223.733 473.826 225.037 470.567 226.886C468.607 228 467.132 226.64 467.132 226.64L467.624 231.563C467.624 231.563 469.009 230.2 470.079 231.317C471.145 232.434 475.298 238.43 476.212 246.088C477.126 253.747 473.268 265.045 473.268 265.045C473.268 265.045 480.392 264.093 481.122 263.814C481.85 263.535 485.538 252.736 485.538 252.736C485.538 252.736 485.292 230.207 485.538 229.348C485.783 228.488 486.784 212.633 486.521 212.114C486.254 211.595 483.328 205.221 483.328 205.221Z" fill="#0644BF"/>
</g>
<path fill-rule="evenodd" clip-rule="evenodd" d="M474.519 205.492C474.457 205.421 474.398 205.344 474.339 205.261C474.339 205.251 474.332 205.245 474.321 205.234C473.466 203.947 473.099 200.973 472.94 198.86C472.912 198.404 473.099 197.954 473.12 197.602C473.123 197.563 473.123 197.525 473.123 197.486C473.099 196.887 473.272 196.595 473.272 196.595L463.039 195.754C464.002 199.447 465.141 203.45 464.923 205.077C464.906 205.248 466.841 211.119 474.519 205.492Z" fill="#FFDCCD"/>
<path fill-rule="evenodd" clip-rule="evenodd" d="M463.738 200.907C464.677 200.308 466.27 200.063 466.27 200.063L469.812 196.878L474.494 195.285C474.494 195.285 472.995 197.255 473.12 197.602C473.099 197.954 472.912 198.405 472.939 198.862C473.099 200.972 473.466 203.948 474.321 205.234C471.72 201.075 464.943 201.832 464.569 201.946L463.738 200.907Z" fill="#EDC5B4"/>
<path fill-rule="evenodd" clip-rule="evenodd" d="M473.652 181.63C473.652 183.425 475.055 184.875 476.786 184.875C478.514 184.875 479.92 183.425 479.92 181.63C479.92 180.833 479.643 180.101 479.179 179.532C478.604 178.83 477.746 178.381 476.786 178.381C475.831 178.381 474.972 178.825 474.393 179.527C473.933 180.095 473.652 180.828 473.652 181.63Z" fill="#162B43"/>
<path fill-rule="evenodd" clip-rule="evenodd" d="M460.819 196.069C460.809 196.452 460.902 197.056 461.034 197.643C461.533 199.962 462 201.195 462.727 201.978C467.361 202.49 471.766 198.328 472.261 196.296C472.112 196.589 472.323 197.564 472.891 197.266C474.041 196.666 475.426 193.812 475.426 193.812L472.07 187.85L468.303 187.171L462.869 187.187L460.85 188.208C460.85 188.208 461.093 189.383 461.075 190.23C461.055 191.078 461.107 191.903 461.107 193.143C461.107 194.383 460.857 194.34 460.819 196.069Z" fill="#FFDCCD"/>
<path fill-rule="evenodd" clip-rule="evenodd" d="M460.417 189.986C461.546 188.852 466.644 194.7 470.647 192.617C470.948 192.661 471.267 192.706 471.596 192.744C471.803 193.55 471.932 194.271 472.112 194.253C472.171 193.685 472.302 193.196 472.475 192.806C472.905 191.848 473.587 191.479 474.124 191.972C474.255 192.091 474.366 192.259 474.446 192.471C474.809 193.408 474.615 195.162 473.268 196.833C473.209 196.903 473.154 196.975 473.088 197.052C473.026 197.122 472.957 197.194 472.891 197.266C472.721 198.993 476.711 194.461 477.528 190.417C478.009 188.021 477.292 185.196 476.125 183.599C476.063 183.517 476.001 183.437 475.935 183.359C475.713 183.093 475.478 182.871 475.232 182.7C469.334 178.612 458.88 184.583 460.417 189.986Z" fill="#2A3A52"/>
<path fill-rule="evenodd" clip-rule="evenodd" d="M474.394 179.527V179.552C474.394 180.923 475.467 182.034 476.786 182.034C478.109 182.034 479.179 180.923 479.179 179.552V179.532C478.605 178.83 477.746 178.381 476.786 178.381C475.831 178.381 474.972 178.825 474.394 179.527Z" fill="#2A3A52"/>
<path fill-rule="evenodd" clip-rule="evenodd" d="M472.295 245.776C472.295 245.776 470.217 246.127 468.662 245.758C467.104 245.388 464.126 244.221 464.25 244.923C464.372 245.624 466.311 246.85 466.754 246.898C467.197 246.945 466.612 248.069 466.245 248.325C465.878 248.581 461.587 250.194 461.089 250.767C460.593 251.34 459.499 251.581 461.172 251.441C462.844 251.3 464.053 250.866 464.053 250.866C464.053 250.866 461.151 252.222 460.884 252.841C460.618 253.46 460.5 253.851 461.636 253.434C462.772 253.016 461.179 253.665 461.241 253.937C461.307 254.208 461.954 254.39 463.087 254.17C464.219 253.95 466.979 252.563 466.979 252.563C466.979 252.563 465.712 253.966 465.178 254.601C464.649 255.236 464.773 255.451 465.681 254.996C466.588 254.541 469.86 252.961 470.335 252.159C470.809 251.357 471.824 250.62 472.305 249.645C472.783 248.67 476.011 246.467 476.011 246.467L472.295 245.776Z" fill="#FFDBCD"/>
<path fill-rule="evenodd" clip-rule="evenodd" d="M482.927 206.602C482.927 206.602 478.56 205.378 476.5 208.666C474.484 211.89 474.709 216.055 476.967 219.345C479.221 222.635 481.081 232.701 480.859 234.133C480.638 235.566 480.253 237.203 479.582 237.632C478.91 238.06 472.306 244.323 471.863 245.244C471.419 246.165 472.469 248.23 473.622 248.661C474.772 249.093 475.644 248.607 475.644 248.607C475.644 248.607 483.329 242.738 484.506 241.502C485.683 240.267 487.314 238.269 487.301 236.829C487.287 235.388 487.512 226.027 487.138 223.931C486.76 221.836 486.639 215.268 486.071 212.85C485.503 210.431 484.707 208.023 484.018 207.349C483.332 206.676 482.927 206.602 482.927 206.602Z" fill="#2D67F7"/>
<path fill-rule="evenodd" clip-rule="evenodd" d="M424.853 303.85C487.799 340.173 485.794 400.218 420.382 437.968C354.968 475.715 250.914 476.871 187.97 440.548C125.025 404.225 127.027 344.176 192.441 306.43C257.854 268.682 361.909 267.526 424.853 303.85Z" fill="#E3EFF9" fill-opacity="0.501961"/>
<path fill-rule="evenodd" clip-rule="evenodd" d="M424.853 276.146C487.799 312.469 485.794 372.514 420.382 410.264C354.968 448.011 250.914 449.167 187.97 412.844C125.025 376.521 127.027 316.474 192.441 278.726C257.854 240.978 361.909 239.822 424.853 276.146Z" fill="#C1D5EB"/>
<path fill-rule="evenodd" clip-rule="evenodd" d="M424.853 264.718C487.799 301.041 485.794 361.086 420.382 398.836C354.968 436.583 250.914 437.739 187.97 401.416C125.025 365.093 127.027 305.046 192.441 267.298C257.854 229.55 361.909 228.395 424.853 264.718Z" fill="#F7FBFF"/>
<rect x="226.611" y="120.893" width="6.47163" height="38.8506" fill="#FFD739" fill-opacity="0.2"/>
<path fill-rule="evenodd" clip-rule="evenodd" d="M178.909 292.982C184.14 293.458 186.748 297.506 184.643 302.223C182.432 307.178 175.921 310.961 170.201 310.442C164.482 309.923 162.146 305.336 164.855 300.424C167.435 295.748 173.678 292.505 178.909 292.982Z" fill="#C1D5EB"/>
<path fill-rule="evenodd" clip-rule="evenodd" d="M177.26 295.884C180.554 296.184 182.141 298.747 180.767 301.688C179.35 304.721 175.348 306.992 171.867 306.676C168.386 306.36 166.903 303.59 168.509 300.574C170.067 297.649 173.967 295.584 177.26 295.884Z" fill="#F7FBFF"/>
<path fill-rule="evenodd" clip-rule="evenodd" d="M434.504 281.512C441.728 282.085 449.419 287.009 451.781 292.755C454.26 298.79 449.963 303.404 442.067 302.78C434.171 302.156 426.248 296.574 424.455 290.59C422.747 284.894 427.279 280.938 434.504 281.512Z" fill="#C1D5EB"/>
<path fill-rule="evenodd" clip-rule="evenodd" d="M435.502 285.047C440.052 285.408 444.838 288.527 446.233 292.109C447.667 295.803 444.969 298.573 440.163 298.193C435.356 297.813 430.481 294.442 429.306 290.769C428.166 287.205 430.954 284.686 435.502 285.047Z" fill="#F7FBFF"/>
<path fill-rule="evenodd" clip-rule="evenodd" d="M390.235 255.911C434.781 281.63 433.364 324.147 387.07 350.874C340.776 377.605 267.135 378.422 222.588 352.702C178.041 326.983 179.458 284.466 225.752 257.738C272.046 231.01 345.688 230.192 390.235 255.911Z" fill="#1F324F"/>
<path fill-rule="evenodd" clip-rule="evenodd" d="M375.164 264.636C411.702 285.718 410.54 320.57 372.569 342.48C334.597 364.39 274.195 365.058 237.657 343.976C201.119 322.895 202.281 288.043 240.253 266.134C278.224 244.225 338.626 243.554 375.164 264.636Z" fill="#162741"/>
<mask id="mask3" mask-type="alpha" maskUnits="userSpaceOnUse" x="210" y="249" width="192" height="111">
<path fill-rule="evenodd" clip-rule="evenodd" d="M375.164 264.636C411.702 285.718 410.54 320.57 372.569 342.48C334.597 364.39 274.195 365.058 237.657 343.976C201.119 322.895 202.281 288.043 240.253 266.134C278.224 244.225 338.626 243.554 375.164 264.636Z" fill="white"/>
</mask>
<g mask="url(#mask3)">
<path fill-rule="evenodd" clip-rule="evenodd" d="M375.164 268.446C411.702 289.528 410.54 324.38 372.569 346.289C334.597 368.199 274.195 368.868 237.657 347.785C201.119 326.704 202.281 291.852 240.253 269.943C278.224 248.034 338.626 247.363 375.164 268.446Z" fill="#2A425D"/>
</g>
<path fill-rule="evenodd" clip-rule="evenodd" d="M344.978 285.693C365.474 297.508 364.823 317.04 343.523 329.319C322.223 341.597 288.34 341.974 267.844 330.158C247.348 318.343 248 298.811 269.3 286.532C290.6 274.254 324.483 273.878 344.978 285.693Z" fill="#162741"/>
<mask id="mask4" mask-type="alpha" maskUnits="userSpaceOnUse" x="252" y="277" width="108" height="62">
<path fill-rule="evenodd" clip-rule="evenodd" d="M344.978 285.693C365.474 297.508 364.823 317.04 343.523 329.319C322.223 341.597 288.34 341.974 267.844 330.158C247.348 318.343 248 298.811 269.3 286.532C290.6 274.254 324.483 273.878 344.978 285.693Z" fill="white"/>
</mask>
<g mask="url(#mask4)">
<path fill-rule="evenodd" clip-rule="evenodd" d="M344.978 313.501C365.474 325.316 364.823 344.848 343.523 357.128C322.223 369.404 288.34 369.782 267.844 357.966C247.348 346.15 248 326.619 269.3 314.34C290.6 302.061 324.483 301.686 344.978 313.501Z" fill="#2A425D"/>
</g>
<path fill-rule="evenodd" clip-rule="evenodd" d="M420.706 302.56H420.623C421.285 320.62 409.351 339.06 384.986 353.125C338.692 379.856 265.051 380.673 220.504 354.953C194.156 339.74 183.888 318.653 189.476 298.442V82H420.706V302.56Z" fill="white" fill-opacity="0.101961"/>
<path fill-rule="evenodd" clip-rule="evenodd" d="M359.546 306.401H359.51C359.818 314.712 354.348 323.192 343.181 329.661C321.963 341.953 288.211 342.331 267.793 330.501C255.732 323.514 251.022 313.831 253.568 304.537V128.09H359.546V306.401Z" fill="#2D67F7" fill-opacity="0.301961"/>
<path fill-rule="evenodd" clip-rule="evenodd" d="M229.842 163.932C231.841 163.932 233.461 162.311 233.461 160.312C233.461 158.313 231.841 156.692 229.842 156.692C227.842 156.692 226.222 158.313 226.222 160.312C226.222 162.311 227.842 163.932 229.842 163.932Z" fill="#FFD739"/>
<path fill-rule="evenodd" clip-rule="evenodd" d="M261.463 226.028C263.462 226.028 265.082 224.407 265.082 222.408C265.082 220.409 263.462 218.788 261.463 218.788C259.463 218.788 257.843 220.409 257.843 222.408C257.843 224.407 259.463 226.028 261.463 226.028Z" fill="#FFD739"/>
<path fill-rule="evenodd" clip-rule="evenodd" d="M368.123 160.502C370.122 160.502 371.743 158.883 371.743 156.887C371.743 154.891 370.122 153.272 368.123 153.272C366.124 153.272 364.503 154.891 364.503 156.887C364.503 158.883 366.124 160.502 368.123 160.502Z" fill="#FF6F61"/>
<path fill-rule="evenodd" clip-rule="evenodd" d="M388.695 229.069C390.694 229.069 392.315 227.45 392.315 225.454C392.315 223.458 390.694 221.839 388.695 221.839C386.696 221.839 385.075 223.458 385.075 225.454C385.075 227.45 386.696 229.069 388.695 229.069Z" fill="#FFD739"/>
<path fill-rule="evenodd" clip-rule="evenodd" d="M350.981 274.401C352.98 274.401 354.601 272.78 354.601 270.781C354.601 268.782 352.98 267.161 350.981 267.161C348.982 267.161 347.361 268.782 347.361 270.781C347.361 272.78 348.982 274.401 350.981 274.401Z" fill="#FFD739"/>
<path fill-rule="evenodd" clip-rule="evenodd" d="M280.131 170.793C282.13 170.793 283.75 169.172 283.75 167.173C283.75 165.174 282.13 163.553 280.131 163.553C278.131 163.553 276.511 165.174 276.511 167.173C276.511 169.172 278.131 170.793 280.131 170.793Z" fill="#2D67F7"/>
<path fill-rule="evenodd" clip-rule="evenodd" d="M243.942 288.113C245.941 288.113 247.562 286.494 247.562 284.498C247.562 282.502 245.941 280.883 243.942 280.883C241.943 280.883 240.322 282.502 240.322 284.498C240.322 286.494 241.943 288.113 243.942 288.113Z" fill="#F7FBFF"/>
<rect x="241.08" y="134.745" width="6.48237" height="150.705" fill="#F7FBFF" fill-opacity="0.2"/>
<rect x="348.119" y="131.38" width="6.48237" height="139.981" fill="#FFD739" fill-opacity="0.2"/>
<rect x="385.075" y="114.79" width="6.47163" height="111.238" fill="#FFD739" fill-opacity="0.2"/>
<rect x="365" y="119" width="6.47163" height="38.8506" fill="#FF6F61" fill-opacity="0.2"/>
<rect x="276.89" y="127.744" width="6.47163" height="38.8613" fill="#0B5AE3" fill-opacity="0.2"/>
<rect x="258.222" y="116.316" width="6.48237" height="105.903" fill="#FFD739" fill-opacity="0.2"/>
<path fill-rule="evenodd" clip-rule="evenodd" d="M290.654 114.66H328.747V239.369L290.654 253.526V114.66Z" fill="#F7FBFF" fill-opacity="0.301961"/>
<path fill-rule="evenodd" clip-rule="evenodd" d="M390.235 34.5916C434.781 60.3109 433.364 102.828 387.07 129.556C340.776 156.284 267.135 157.102 222.588 131.382C178.041 105.664 179.458 63.1467 225.752 36.4187C272.046 9.69064 345.688 8.87268 390.235 34.5916Z" fill="#0850D3"/>
<path fill-rule="evenodd" clip-rule="evenodd" d="M390.235 26.973C434.781 52.6923 433.364 95.2091 387.07 121.937C340.776 148.665 267.135 149.483 222.588 123.764C178.041 98.045 179.458 55.5281 225.752 28.8001C272.046 2.07207 345.688 1.25411 390.235 26.973Z" fill="#2D67F7"/>
<path d="M321.777 67.7826L338.502 77.4004C338.502 77.4004 342.028 79.4283 336.341 80.614L261.024 90.7626L255.679 87.6889L291.16 73.1402L274.284 63.314C274.284 63.314 272.427 60.91 278.49 60.0612L352.276 50.2474L357.839 53.4462L321.777 67.7826Z" fill="white"/>
<path d="M313.76 238.909H326.984C326.984 238.909 329.773 238.909 328.339 242.111L305.538 280.534H301.312L305.338 255.413L291.91 255.326C291.91 255.326 289.523 254.366 291.336 251.25L313.762 213.701H318.161L313.76 238.909Z" fill="#F7FBFF"/>
<path fill-rule="evenodd" clip-rule="evenodd" d="M116.097 407.634C116.215 407.539 116.352 407.468 117.262 406.929C120.847 405.644 121.556 406.157 122.149 406.586C122.308 406.701 122.459 406.811 122.655 406.877C123.22 407.071 123.608 407.362 123.71 407.726C124.376 410.113 125.666 410.349 126.841 410.564C127.857 410.75 128.788 410.92 129.154 412.456C129.253 412.871 129.825 413.636 130.475 414.506C130.606 414.682 130.74 414.861 130.874 415.043C131.176 414.938 131.435 414.845 131.659 414.766C132.724 414.387 132.99 414.292 133.179 414.427C133.233 414.461 135.931 416.342 135.967 416.463C135.852 416.502 135.731 416.54 135.594 416.584C135.559 416.595 135.524 416.607 135.486 416.619C135.508 416.633 135.528 416.646 135.547 416.659C135.62 416.708 135.684 416.75 135.753 416.788C154.975 427.748 155.898 428.371 156.845 428.411C157.318 428.43 157.798 428.304 160.578 429.252C162.699 429.974 163.357 430.444 164.009 430.91C164.788 431.466 165.56 432.018 168.809 432.988C171.718 433.856 174.697 434.773 177.083 435.507C179.209 436.161 180.863 436.67 181.577 436.87C176.632 433.403 173.928 431.323 172.261 430.04C170.291 428.524 169.768 428.122 168.707 427.863C164.919 426.934 161.538 424.851 156.842 421.958C154.532 420.535 151.903 418.916 148.752 417.142C148.732 417.218 148.714 417.282 148.695 417.35C148.682 417.397 148.669 417.446 148.654 417.502C148.047 417.207 145.879 415.85 145.372 415.528C144.633 415.053 145 414.184 145.45 413.547C145.627 413.297 145.539 413.25 145.114 413.022C145.021 412.972 144.911 412.913 144.784 412.841C144.692 413.142 144.616 413.395 144.533 413.668C143.214 413.464 142.035 413.225 141.08 412.629C140.61 412.335 138.79 411.168 138.787 410.745C138.781 409.654 138.751 408.657 138.701 407.748C139.893 407.825 141.642 407.806 143.438 407.787C146.709 407.751 150.137 407.714 150.64 408.256C150.966 408.609 151.197 408.995 151.427 409.377C151.483 409.47 151.538 409.563 151.595 409.655C151.67 409.776 151.729 409.949 151.366 410.018C150.951 409.765 150.864 409.762 150.157 409.991C150.218 410.066 150.279 410.141 150.342 410.218C150.426 410.323 150.513 410.43 150.604 410.541C150.865 410.473 151.092 410.414 151.292 410.362C152.162 410.133 152.501 410.044 152.817 410.022C152.866 410.018 152.906 410.014 152.946 410.014C153.244 410.017 153.54 410.275 157.505 412.927L157.417 412.921C157.12 412.899 156.852 412.88 156.5 412.854C161.987 415.943 179.858 424.729 184.035 426.287C196.358 430.892 206.081 435.448 212.004 438.223C215.788 439.996 218.022 441.042 218.393 440.912C218.938 440.716 219.121 440.626 219.28 440.658C219.417 440.685 219.536 440.804 219.854 441.026C236.399 452.558 236.624 452.754 236.881 452.891C236.908 452.905 236.936 452.919 236.983 452.945C236.994 452.893 236.973 452.81 236.945 452.699C236.816 452.191 236.541 451.107 238.503 449.808C240.951 448.189 244.631 446.174 251.955 442.163L252.501 441.864C252.831 442.252 253.147 442.622 253.49 443.027C253.635 442.959 253.761 442.898 253.889 442.835C254.547 442.513 255.254 442.166 258.928 440.797C261.376 439.884 262.501 439.227 263.38 438.713C264.251 438.204 264.882 437.835 266.322 437.497C268.401 437.009 268.961 437.334 269.782 437.811C269.864 437.859 269.948 437.908 270.037 437.958C270.898 438.578 271.588 439.045 272.135 439.416C273.895 440.608 274.173 440.796 273.889 441.819C273.793 442.164 272.926 442.479 272.134 442.767C271.091 443.146 270.177 443.479 271.317 443.772C271.429 443.801 271.537 443.828 271.641 443.854C272.673 444.117 273.314 444.28 274.143 444.717C274.969 445.151 274.516 445.286 273.995 445.442C273.771 445.509 273.533 445.58 273.381 445.68C273.002 445.933 272.616 445.891 272.254 445.76C271.792 445.593 271.323 445.42 270.93 445.209C269.948 444.672 269.069 444.377 267.926 443.993C267.167 443.737 266.292 443.443 265.194 443.014C264.019 442.553 263.656 442.584 257.901 445.531C257.977 445.562 258.051 445.592 258.123 445.621C258.413 445.738 258.682 445.847 258.968 445.961C258.715 446.172 253.386 449.573 252.552 450.105L252.448 450.172C252.129 450.375 251.789 450.567 251.452 450.756C250.042 451.549 248.707 452.3 249.386 453.7C249.906 454.773 251.178 455.709 252.591 456.748C253.359 457.313 254.169 457.908 254.921 458.573C257.789 461.101 261.363 466.274 262.542 469.277C263.444 471.568 262.231 472.516 261.602 473.008C261.289 473.253 261.12 473.384 261.429 473.512C261.632 473.596 261.833 473.68 262.034 473.764C262.634 474.016 263.234 474.267 263.862 474.496C265.246 474.998 265.525 475.293 265.883 475.67C266.29 476.098 266.798 476.634 269.143 477.702C269.819 478.011 270.336 478.094 271.182 477.789C275.142 476.359 275.634 484.642 267.79 489.283C267.67 489.329 267.539 489.383 267.396 489.442C266.049 489.995 263.667 490.973 260.431 490.453C258.678 490.176 254.751 488.708 252.547 487.125C249.326 484.806 249.588 482.858 249.725 481.844C249.763 481.557 249.792 481.345 249.729 481.221C248.986 479.756 248.954 479.721 248.82 479.662C247.454 479.06 246.061 478.481 244.472 478.062C244.335 478.027 244.225 477.995 244.112 477.973C243.277 477.808 242.34 478.161 230.04 481.2C227.817 481.751 224.76 481.103 222.757 480.493C221.161 480.012 197.754 472.941 195.571 471.711C195.185 471.306 195.238 470.863 195.401 470.409C196.339 467.781 197.588 465.187 198.971 462.607C199.007 462.541 199.04 462.493 199.044 462.442C199.065 462.188 198.377 461.875 193.763 459.033C190.638 457.11 190.465 457.041 190.451 456.949C190.447 456.922 190.458 456.892 190.407 456.81C190.233 456.524 189.565 456.223 188.19 455.603C185.239 454.273 179.035 451.478 167.468 444.215C165.363 442.895 163.717 441.819 162.327 440.911C159.878 439.31 158.224 438.229 156.26 437.244C155.583 436.905 154.856 436.56 154.039 436.173C151.847 435.134 148.999 433.785 144.69 431.381C137.707 427.485 133.975 424.858 131.521 423.129C129.931 422.01 128.877 421.268 127.821 420.802C127.786 420.831 127.752 420.858 127.717 420.886C127.655 420.935 127.592 420.986 127.516 421.048C127.475 421.03 127.435 421.013 127.396 420.996C127.332 420.97 127.271 420.944 127.218 420.916C125.014 419.681 124.504 419.463 124.519 419.29C124.523 419.241 124.568 419.196 124.63 419.133C124.768 418.99 124.893 418.844 125.024 418.692C125.086 418.619 125.15 418.544 125.218 418.468C124.947 418.342 124.678 418.216 124.382 418.077C124.238 418.01 124.089 417.94 123.93 417.865C123.827 418.239 123.736 418.568 123.637 418.928C122.339 418.724 121.164 418.503 120.22 417.914C119.701 417.592 117.887 416.452 117.884 415.992C117.875 414.476 116.851 413.373 115.927 412.376C114.623 410.97 113.517 409.778 115.736 407.944C115.961 407.758 116.025 407.692 116.097 407.634ZM138.302 403.8C138.475 404.882 138.617 406.186 138.701 407.748C137.68 407.681 137.067 407.544 137.183 407.276C137.798 405.844 138.143 404.706 138.302 403.8ZM138.302 403.8C138.669 401.701 138.035 400.846 137.443 400.455C137.75 401.204 138.058 402.285 138.302 403.8ZM137.443 400.455C137.216 400.305 136.996 400.223 136.84 400.165C136.741 400.128 136.669 400.101 136.637 400.073C135.481 399.053 136.459 398.054 137.443 400.455ZM129.533 415.169C129.484 415.185 129.435 415.2 129.384 415.215C129.44 415.267 129.49 415.314 129.542 415.362C129.614 415.43 129.691 415.501 129.791 415.593C129.853 415.541 129.927 415.485 129.998 415.432C130.147 415.319 130.282 415.218 130.25 415.186C130.075 414.999 129.819 415.079 129.533 415.169Z" fill="url(#paint2_linear)"/>
<path fill-rule="evenodd" clip-rule="evenodd" d="M181.434 333.921C182.227 334.588 181.968 335.801 180.845 336.635C179.712 337.479 178.136 337.611 177.338 336.927C176.543 336.246 176.83 335.022 177.969 334.196C179.097 333.378 180.643 333.257 181.434 333.921Z" fill="#2D67F7"/>
<path fill-rule="evenodd" clip-rule="evenodd" d="M188.154 339.571C188.973 340.256 188.746 341.52 187.635 342.393C186.514 343.276 184.928 343.422 184.104 342.715C183.283 342.012 183.54 340.741 184.667 339.875C185.783 339.02 187.339 338.885 188.154 339.571Z" fill="#FF6F61"/>
<path fill-rule="evenodd" clip-rule="evenodd" d="M195.089 345.399C195.934 346.109 195.739 347.421 194.643 348.335C193.537 349.26 191.94 349.423 191.089 348.692C190.241 347.968 190.466 346.642 191.579 345.738C192.681 344.841 194.248 344.692 195.089 345.399Z" fill="#C1D5EB"/>
<path fill-rule="evenodd" clip-rule="evenodd" d="M202.248 351.418C203.12 352.148 202.961 353.516 201.88 354.475C200.79 355.442 199.182 355.622 198.303 354.867C197.427 354.119 197.618 352.737 198.715 351.792C199.803 350.85 201.379 350.687 202.248 351.418Z" fill="#C1D5EB"/>
<path fill-rule="evenodd" clip-rule="evenodd" d="M209.643 357.634C210.545 358.389 210.424 359.812 209.361 360.816C208.287 361.831 206.67 362.028 205.761 361.249C204.855 360.473 205.008 359.036 206.089 358.042C207.16 357.059 208.746 356.879 209.643 357.634Z" fill="#C1D5EB"/>
<path fill-rule="evenodd" clip-rule="evenodd" d="M171.778 341.008C172.583 341.714 172.263 343.013 171.052 343.91C169.829 344.821 168.171 344.973 167.361 344.249C166.554 343.529 166.906 342.216 168.134 341.326C169.35 340.447 170.976 340.305 171.778 341.008Z" fill="#2D67F7"/>
<path fill-rule="evenodd" clip-rule="evenodd" d="M178.601 346.992C179.432 347.719 179.145 349.073 177.946 350.015C176.735 350.967 175.064 351.137 174.227 350.389C173.393 349.644 173.714 348.28 174.93 347.345C176.135 346.42 177.773 346.265 178.601 346.992Z" fill="#FF6F61"/>
<path fill-rule="evenodd" clip-rule="evenodd" d="M185.651 353.173C186.51 353.925 186.257 355.334 185.071 356.325C183.875 357.322 182.192 357.509 181.326 356.737C180.464 355.964 180.751 354.541 181.954 353.565C183.146 352.595 184.795 352.422 185.651 353.173Z" fill="#FF6F61"/>
<path fill-rule="evenodd" clip-rule="evenodd" d="M192.939 359.562C193.827 360.342 193.61 361.81 192.44 362.849C191.259 363.895 189.564 364.102 188.668 363.299C187.777 362.503 188.028 361.02 189.216 359.992C190.393 358.977 192.054 358.787 192.939 359.562Z" fill="#CFE3F3"/>
<path fill-rule="evenodd" clip-rule="evenodd" d="M200.476 366.173C201.395 366.98 201.217 368.511 200.064 369.598C198.9 370.699 197.194 370.921 196.267 370.093C195.343 369.269 195.556 367.721 196.728 366.644C197.889 365.578 199.56 365.37 200.476 366.173Z" fill="#CFE3F3"/>
<path fill-rule="evenodd" clip-rule="evenodd" d="M161.355 348.658C162.171 349.406 161.782 350.798 160.471 351.771C159.148 352.754 157.398 352.934 156.577 352.162C155.76 351.397 156.186 349.991 157.514 349.028C158.829 348.076 160.542 347.91 161.355 348.658Z" fill="#2D67F7"/>
<path fill-rule="evenodd" clip-rule="evenodd" d="M168.277 355.012C169.121 355.788 168.764 357.239 167.465 358.26C166.153 359.292 164.389 359.49 163.54 358.693C162.694 357.9 163.088 356.432 164.405 355.421C165.709 354.42 167.436 354.24 168.277 355.012Z" fill="#2D67F7"/>
<path fill-rule="evenodd" clip-rule="evenodd" d="M175.438 361.585C176.311 362.388 175.989 363.902 174.703 364.975C173.404 366.059 171.627 366.274 170.747 365.45C169.871 364.629 170.231 363.098 171.536 362.039C172.828 360.986 174.568 360.788 175.438 361.585Z" fill="#FF6F61"/>
<path fill-rule="evenodd" clip-rule="evenodd" d="M182.85 368.39C183.755 369.221 183.47 370.803 182.199 371.929C180.915 373.068 179.124 373.304 178.212 372.448C177.305 371.6 177.628 370 178.918 368.885C180.196 367.784 181.949 367.565 182.85 368.39Z" fill="#FF6F61"/>
<path fill-rule="evenodd" clip-rule="evenodd" d="M190.528 375.44C191.465 376.299 191.221 377.951 189.967 379.135C188.7 380.33 186.894 380.59 185.95 379.703C185.009 378.824 185.292 377.151 186.567 375.981C187.828 374.82 189.595 374.581 190.528 375.44Z" fill="#CFE3F3"/>
<path fill-rule="evenodd" clip-rule="evenodd" d="M428.168 329.094C427.375 329.761 427.633 330.975 428.756 331.81C429.888 332.652 431.462 332.784 432.26 332.101C433.054 331.42 432.767 330.196 431.629 329.37C430.502 328.551 428.957 328.43 428.168 329.094Z" fill="#2D67F7"/>
<path fill-rule="evenodd" clip-rule="evenodd" d="M421.455 334.744C420.637 335.432 420.864 336.695 421.974 337.569C423.094 338.452 424.678 338.598 425.501 337.891C426.321 337.188 426.065 335.915 424.939 335.051C423.824 334.194 422.269 334.059 421.455 334.744Z" fill="#FF6F61"/>
<path fill-rule="evenodd" clip-rule="evenodd" d="M414.527 340.575C413.683 341.285 413.877 342.597 414.973 343.515C416.078 344.436 417.673 344.599 418.523 343.872C419.37 343.144 419.145 341.818 418.034 340.914C416.932 340.017 415.368 339.868 414.527 340.575Z" fill="#FF6F61"/>
<path fill-rule="evenodd" clip-rule="evenodd" d="M407.375 346.594C406.504 347.328 406.662 348.696 407.742 349.651C408.831 350.621 410.437 350.798 411.315 350.046C412.19 349.298 412.001 347.916 410.904 346.968C409.818 346.029 408.243 345.863 407.375 346.594Z" fill="#2D67F7"/>
<path fill-rule="evenodd" clip-rule="evenodd" d="M399.987 352.81C399.087 353.568 399.208 354.995 400.27 355.996C401.342 357.01 402.958 357.208 403.866 356.428C404.77 355.653 404.618 354.216 403.538 353.222C402.468 352.238 400.884 352.058 399.987 352.81Z" fill="#2D67F7"/>
<path fill-rule="evenodd" clip-rule="evenodd" d="M437.815 336.183C437.011 336.889 437.33 338.185 438.539 339.086C439.761 339.997 441.42 340.149 442.227 339.425C443.034 338.705 442.68 337.392 441.454 336.503C440.239 335.621 438.615 335.479 437.815 336.183Z" fill="#2D67F7"/>
<path fill-rule="evenodd" clip-rule="evenodd" d="M430.997 342.168C430.167 342.899 430.454 344.249 431.652 345.191C432.862 346.143 434.531 346.313 435.366 345.565C436.201 344.821 435.879 343.456 434.663 342.521C433.461 341.597 431.825 341.441 430.997 342.168Z" fill="#FF6F61"/>
<path fill-rule="evenodd" clip-rule="evenodd" d="M423.955 348.349C423.097 349.104 423.35 350.514 424.535 351.501C425.73 352.501 427.411 352.688 428.276 351.916C429.137 351.144 428.85 349.721 427.648 348.741C426.458 347.771 424.81 347.601 423.955 348.349Z" fill="#CFE3F3"/>
<path fill-rule="evenodd" clip-rule="evenodd" d="M416.675 354.742C415.787 355.521 416.005 356.989 417.173 358.028C418.354 359.074 420.047 359.282 420.941 358.482C421.832 357.682 421.581 356.2 420.394 355.171C419.218 354.157 417.559 353.966 416.675 354.742Z" fill="#CFE3F3"/>
<path fill-rule="evenodd" clip-rule="evenodd" d="M409.145 361.353C408.227 362.16 408.405 363.69 409.556 364.781C410.719 365.879 412.424 366.104 413.35 365.276C414.272 364.449 414.06 362.901 412.889 361.824C411.73 360.757 410.059 360.549 409.145 361.353Z" fill="#CFE3F3"/>
<path fill-rule="evenodd" clip-rule="evenodd" d="M448.228 343.834C447.411 344.585 447.802 345.977 449.111 346.95C450.431 347.934 452.18 348.11 453 347.342C453.817 346.576 453.392 345.167 452.065 344.204C450.753 343.252 449.039 343.089 448.228 343.834Z" fill="#FF6F61"/>
<path fill-rule="evenodd" clip-rule="evenodd" d="M441.312 350.192C440.467 350.964 440.824 352.418 442.122 353.44C443.431 354.472 445.194 354.669 446.043 353.873C446.888 353.076 446.496 351.611 445.18 350.6C443.875 349.599 442.15 349.419 441.312 350.192Z" fill="#FF6F61"/>
<path fill-rule="evenodd" clip-rule="evenodd" d="M434.158 356.764C433.285 357.568 433.607 359.085 434.892 360.155C436.191 361.239 437.964 361.457 438.843 360.633C439.72 359.808 439.359 358.278 438.057 357.218C436.766 356.165 435.027 355.968 434.158 356.764Z" fill="#FF6F61"/>
<path fill-rule="evenodd" clip-rule="evenodd" d="M426.753 363.573C425.849 364.404 426.134 365.983 427.403 367.112C428.686 368.251 430.476 368.487 431.386 367.631C432.293 366.783 431.97 365.183 430.681 364.068C429.404 362.963 427.653 362.745 426.753 363.573Z" fill="#CFE3F3"/>
<path fill-rule="evenodd" clip-rule="evenodd" d="M419.083 370.623C418.147 371.482 418.391 373.134 419.643 374.318C420.909 375.516 422.713 375.776 423.657 374.89C424.596 374.007 424.313 372.334 423.04 371.163C421.78 370.003 420.015 369.764 419.083 370.623Z" fill="#CFE3F3"/>
<path fill-rule="evenodd" clip-rule="evenodd" d="M362.077 381.071C362.077 381.071 359.694 381.185 357.992 380.562C356.29 379.935 353.096 378.225 353.14 379.028C353.185 379.831 355.201 381.469 355.694 381.584C356.187 381.694 355.377 382.875 354.928 383.114C354.479 383.353 349.434 384.583 348.799 385.157C348.165 385.732 346.898 385.857 348.799 385.923C350.701 385.992 352.119 385.67 352.119 385.67C352.119 385.67 348.672 386.799 348.289 387.457C347.906 388.115 347.72 388.537 349.055 388.222C350.39 387.907 348.509 388.42 348.544 388.731C348.579 389.046 349.283 389.337 350.587 389.244C351.891 389.15 355.183 387.966 355.183 387.966C355.183 387.966 353.569 389.368 352.885 390.009C352.201 390.65 352.313 390.909 353.396 390.522C354.479 390.134 358.373 388.804 359.013 387.966C359.654 387.131 360.895 386.442 361.567 385.414C362.238 384.385 366.163 382.349 366.163 382.349L362.077 381.071Z" fill="#AB7D5B"/>
<path fill-rule="evenodd" clip-rule="evenodd" d="M417.743 391.543C417.743 391.543 417.633 393.978 416.977 396.139C416.321 398.299 413.913 399.969 413.913 399.969L414.934 390.265L417.743 391.543Z" fill="#AB7D5B"/>
<path fill-rule="evenodd" clip-rule="evenodd" d="M397.06 473.266C397.06 473.266 396.912 476.324 397.571 477.096C398.23 477.869 398.592 479.652 398.592 479.652C398.592 479.652 396.493 482.474 395.783 482.204C395.073 481.934 388.902 479.662 388.378 479.139C387.854 478.62 386.353 476.878 386.591 476.84C386.828 476.805 390.259 475.666 391.187 475.566C392.115 475.462 392.464 474.032 392.464 474.032V471.732L397.06 473.266Z" fill="#AB7D5B"/>
<path fill-rule="evenodd" clip-rule="evenodd" d="M389.144 476.075C389.144 476.075 389.163 476.875 389.655 478.118C390.146 479.361 391.438 480.556 393.23 480.926C395.022 481.297 395.844 481.342 396.805 480.926C397.765 480.514 398.337 479.905 398.337 479.905L398.592 479.652C398.592 479.652 399.817 482.692 399.869 483.991C399.921 485.29 399.583 486.121 398.847 486.803C398.112 487.482 394.966 486.907 393.23 485.778C391.494 484.653 388.703 482.928 387.612 482.97C386.521 483.011 381.336 481.065 380.462 479.652C379.588 478.236 379.024 476.93 379.441 476.075C379.858 475.223 380.709 474.596 381.484 474.797C382.258 475.001 384.757 475.51 386.08 475.818C387.403 476.127 388.971 476.12 389.399 476.075C389.828 476.03 389.144 476.075 389.144 476.075Z" fill="#010742"/>
<path fill-rule="evenodd" clip-rule="evenodd" d="M390.932 475.309C390.932 475.309 389.163 476.109 389.655 477.353C390.146 478.596 391.438 479.79 393.23 480.161C395.022 480.532 395.844 480.577 396.805 480.161C397.765 479.749 398.337 479.139 398.337 479.139L398.592 478.883C398.592 478.883 399.817 481.927 399.869 483.226C399.921 484.524 399.583 485.356 398.847 486.034C398.112 486.716 394.966 486.138 393.23 485.013C391.494 483.887 388.703 482.163 387.612 482.204C386.521 482.246 381.336 480.3 380.462 478.883C379.588 477.47 379.024 476.161 379.441 475.309C379.858 474.454 380.709 473.831 381.484 474.032C382.258 474.236 384.757 474.745 386.08 475.053C387.403 475.361 388.971 475.354 389.399 475.309C389.828 475.264 390.932 475.309 390.932 475.309Z" fill="#2D67F7"/>
<mask id="mask5" mask-type="alpha" maskUnits="userSpaceOnUse" x="379" y="473" width="21" height="14">
<path fill-rule="evenodd" clip-rule="evenodd" d="M390.932 475.309C390.932 475.309 389.163 476.109 389.655 477.353C390.146 478.596 391.438 479.79 393.23 480.161C395.022 480.532 395.844 480.577 396.805 480.161C397.765 479.749 398.337 479.139 398.337 479.139L398.592 478.883C398.592 478.883 399.817 481.927 399.869 483.226C399.921 484.524 399.583 485.356 398.847 486.034C398.112 486.716 394.966 486.138 393.23 485.013C391.494 483.887 388.703 482.163 387.612 482.204C386.521 482.246 381.336 480.3 380.462 478.883C379.588 477.47 379.024 476.161 379.441 475.309C379.858 474.454 380.709 473.831 381.484 474.032C382.258 474.236 384.757 474.745 386.08 475.053C387.403 475.361 388.971 475.354 389.399 475.309C389.828 475.264 390.932 475.309 390.932 475.309Z" fill="white"/>
</mask>
<g mask="url(#mask5)">
<path fill-rule="evenodd" clip-rule="evenodd" d="M389.145 474.797C389.145 474.797 387.779 475.379 387.613 476.587C387.447 477.792 387.613 478.118 387.613 478.118L388.124 477.862C388.124 477.862 388.11 476.781 388.379 476.331C388.648 475.877 389.911 474.797 389.911 474.797H389.145Z" fill="#010742"/>
<path fill-rule="evenodd" clip-rule="evenodd" d="M387.357 474.797C387.357 474.797 385.991 475.379 385.825 476.587C385.659 477.792 385.825 478.118 385.825 478.118L386.335 477.862C386.335 477.862 386.321 476.781 386.591 476.331C386.86 475.877 388.123 474.797 388.123 474.797H387.357Z" fill="#010742"/>
<path fill-rule="evenodd" clip-rule="evenodd" d="M385.57 474.797C385.57 474.797 384.204 475.379 384.038 476.587C383.872 477.792 384.038 478.118 384.038 478.118L384.549 477.862C384.549 477.862 384.534 476.781 384.804 476.331C385.073 475.877 386.336 474.797 386.336 474.797H385.57Z" fill="#010742"/>
</g>
<path fill-rule="evenodd" clip-rule="evenodd" d="M412.892 466.628C412.892 466.628 412.385 468.955 411.615 469.436C410.846 469.914 409.573 469.945 409.573 469.945C409.573 469.945 408.303 469.969 409.062 470.967C409.821 471.968 411.311 473.966 412.637 474.288C413.963 474.61 415.464 474.669 415.957 474.797C416.448 474.925 417.54 475.185 417.744 474.797C417.947 474.412 418.51 473.522 418.51 473.522C418.51 473.522 417.935 471.905 417.744 470.711C417.553 469.519 416.723 467.137 416.723 467.137L412.892 466.628Z" fill="#AB7D5B"/>
<path fill-rule="evenodd" clip-rule="evenodd" d="M408.551 469.945C408.551 469.945 409.336 470.745 409.828 471.988C410.319 473.232 411.611 474.426 413.402 474.797C415.194 475.167 416.017 475.212 416.977 474.797C417.938 474.385 418.509 473.775 418.509 473.775L418.765 473.523C418.765 473.523 419.99 476.563 420.041 477.862C420.093 479.164 419.756 478.97 419.02 479.652C418.284 480.331 415.138 480.777 413.402 479.652C411.666 478.527 408.639 477.917 407.529 477.353C406.556 476.857 401.717 475.192 400.635 473.775C399.625 472.456 399.204 471.057 399.614 470.201C400.016 469.36 400.462 469.121 401.387 468.899C402.166 468.712 405.553 469.104 406.667 469.298C408.1 469.544 410.314 469.786 409.828 469.689C409.496 469.627 408.551 469.945 408.551 469.945Z" fill="#010742"/>
<path fill-rule="evenodd" clip-rule="evenodd" d="M410.849 469.689C410.849 469.689 409.336 470.236 409.828 471.479C410.319 472.723 411.611 473.917 413.402 474.288C415.194 474.658 416.017 474.7 416.977 474.288C417.938 473.872 418.509 473.266 418.509 473.266L418.765 473.01C418.765 473.01 419.99 476.054 420.041 477.353C420.093 478.651 419.245 478.461 418.509 479.139C417.774 479.822 415.138 480.265 413.402 479.139C411.666 478.014 408.639 477.404 407.529 476.84C406.556 476.345 401.717 474.683 400.635 473.266C399.625 471.943 399.204 470.548 399.614 469.689C400.016 468.847 400.462 468.609 401.387 468.387C402.166 468.2 405.394 468.986 406.508 469.18C407.941 469.429 412.612 469.53 412.126 469.436C411.794 469.37 410.849 469.689 410.849 469.689Z" fill="#2D67F7"/>
<mask id="mask6" mask-type="alpha" maskUnits="userSpaceOnUse" x="399" y="468" width="22" height="12">
<path fill-rule="evenodd" clip-rule="evenodd" d="M410.849 469.689C410.849 469.689 409.336 470.236 409.828 471.479C410.319 472.723 411.611 473.917 413.402 474.288C415.194 474.658 416.017 474.7 416.977 474.288C417.938 473.872 418.509 473.266 418.509 473.266L418.765 473.01C418.765 473.01 419.99 476.054 420.041 477.353C420.093 478.651 419.245 478.461 418.509 479.139C417.774 479.822 415.138 480.265 413.402 479.139C411.666 478.014 408.639 477.404 407.529 476.84C406.556 476.345 401.717 474.683 400.635 473.266C399.625 471.943 399.204 470.548 399.614 469.689C400.016 468.847 400.462 468.609 401.387 468.387C402.166 468.2 405.394 468.986 406.508 469.18C407.941 469.429 412.612 469.53 412.126 469.436C411.794 469.37 410.849 469.689 410.849 469.689Z" fill="white"/>
</mask>
<g mask="url(#mask6)">
<path fill-rule="evenodd" clip-rule="evenodd" d="M409.317 468.924C409.317 468.924 407.951 469.505 407.785 470.711C407.619 471.919 407.785 472.245 407.785 472.245L408.296 471.988C408.296 471.988 408.281 470.908 408.551 470.458C408.82 470.004 410.083 468.924 410.083 468.924H409.317Z" fill="#010742"/>
<path fill-rule="evenodd" clip-rule="evenodd" d="M407.785 468.667C407.785 468.667 406.418 469.249 406.253 470.458C406.086 471.663 406.253 471.988 406.253 471.988L406.763 471.732C406.763 471.732 406.749 470.655 407.019 470.201C407.288 469.748 408.551 468.667 408.551 468.667H407.785Z" fill="#010742"/>
<path fill-rule="evenodd" clip-rule="evenodd" d="M405.998 468.158C405.998 468.158 404.632 468.74 404.465 469.945C404.299 471.154 404.465 471.479 404.465 471.479L404.976 471.223C404.976 471.223 404.962 470.143 405.231 469.689C405.501 469.239 406.764 468.158 406.764 468.158H405.998Z" fill="#010742"/>
</g>
<path fill-rule="evenodd" clip-rule="evenodd" d="M396.159 392.804C396.159 392.804 397.105 399.477 399.614 411.719C401.989 423.313 403.539 434.734 404.017 435.748C404.495 436.766 407.069 443.512 407.337 446.002C407.605 448.492 411.507 467.712 411.507 467.712C411.507 467.712 412.036 470.828 414.28 470.582C416.524 470.333 417.751 469.041 417.751 469.041C417.751 469.041 417.555 454.964 417.005 448.613C416.377 441.365 411.917 434.401 411.741 432.87C411.565 431.343 412.547 424.182 412.43 422.326C412.313 420.469 412.443 414.534 412.947 410.344C413.293 407.473 414.361 404.117 415.23 401.375C416.628 396.966 415.126 389.604 415.126 389.604L396.159 392.804Z" fill="#1F324F"/>
<mask id="mask7" mask-type="alpha" maskUnits="userSpaceOnUse" x="396" y="389" width="22" height="82">
<path fill-rule="evenodd" clip-rule="evenodd" d="M396.159 392.804C396.159 392.804 397.105 399.477 399.614 411.719C401.989 423.313 403.539 434.734 404.017 435.748C404.495 436.766 407.069 443.512 407.337 446.002C407.605 448.492 411.507 467.712 411.507 467.712C411.507 467.712 412.036 470.828 414.28 470.582C416.524 470.333 417.751 469.041 417.751 469.041C417.751 469.041 417.555 454.964 417.005 448.613C416.377 441.365 411.917 434.401 411.741 432.87C411.565 431.343 412.547 424.182 412.43 422.326C412.313 420.47 412.443 414.534 412.947 410.344C413.293 407.473 414.361 404.117 415.23 401.375C416.628 396.966 415.126 389.604 415.126 389.604L396.159 392.804Z" fill="white"/>
</mask>
<g mask="url(#mask7)">
<path fill-rule="evenodd" clip-rule="evenodd" d="M393.605 392.804C393.605 392.804 394.552 399.477 397.06 411.719C399.436 423.313 400.986 434.734 401.463 435.748C401.941 436.766 404.515 443.512 404.784 446.002C405.052 448.492 408.953 467.712 408.953 467.712C408.953 467.712 409.482 470.828 411.726 470.582C413.97 470.333 415.197 469.041 415.197 469.041C415.197 469.041 415.001 454.964 414.451 448.613C413.823 441.365 409.363 434.401 409.188 432.87C409.012 431.343 409.993 424.182 409.876 422.326C409.759 420.47 409.89 414.534 410.394 410.344C410.739 407.473 413.555 403.733 414.424 400.99C415.822 396.582 412.636 390.778 412.636 390.778L393.605 392.804Z" fill="#2A425D"/>
<path fill-rule="evenodd" clip-rule="evenodd" d="M414.562 404.786C414.562 404.786 409.335 406.067 407.711 405.599C406.088 405.135 409.69 407.528 411.717 407.58C413.743 407.629 414.562 404.786 414.562 404.786Z" fill="#1F324F"/>
<path fill-rule="evenodd" clip-rule="evenodd" d="M410.338 432.15C410.338 432.15 407.412 433.386 406.763 433.425C406.114 433.466 407.242 433.823 409.061 434.446C410.881 435.073 411.104 434.702 411.104 434.702L410.338 432.15Z" fill="#1F324F"/>
</g>
<path fill-rule="evenodd" clip-rule="evenodd" d="M385.821 390.913C385.821 390.913 381.907 409.391 384.778 421.553C387.649 433.712 387.719 438.584 388.057 439.654C388.396 440.725 390.053 447.754 389.989 450.258C389.925 452.762 391.497 472.349 391.497 472.349C391.497 472.349 391.609 475.507 393.866 475.559C396.123 475.611 397.51 474.496 397.51 474.496C397.51 474.496 398.928 460.498 399.224 454.13C399.563 446.861 396.066 439.367 396.095 437.826C396.123 436.288 397.903 424.192 398.033 422.336C398.163 420.48 398.3 413.024 399.506 410.399C400.711 407.771 403.497 404.869 404.722 402.268C406.692 398.081 405.743 390.265 405.743 390.265L385.821 390.913Z" fill="#1F324F"/>
<mask id="mask8" mask-type="alpha" maskUnits="userSpaceOnUse" x="383" y="390" width="23" height="86">
<path fill-rule="evenodd" clip-rule="evenodd" d="M385.821 390.913C385.821 390.913 381.907 409.391 384.778 421.553C387.649 433.712 387.719 438.584 388.057 439.654C388.396 440.725 390.053 447.754 389.989 450.258C389.925 452.762 391.497 472.349 391.497 472.349C391.497 472.349 391.609 475.507 393.866 475.559C396.123 475.611 397.51 474.496 397.51 474.496C397.51 474.496 398.928 460.498 399.224 454.13C399.563 446.861 396.066 439.367 396.095 437.826C396.123 436.288 397.903 424.192 398.033 422.336C398.163 420.48 398.3 413.024 399.506 410.399C400.711 407.771 403.497 404.869 404.722 402.268C406.692 398.081 405.743 390.265 405.743 390.265L385.821 390.913Z" fill="white"/>
</mask>
<g mask="url(#mask8)">
<path fill-rule="evenodd" clip-rule="evenodd" d="M361.696 392.489C361.696 392.489 370.216 411.3 374.508 423.036C378.801 434.768 379.448 439.596 379.911 440.621C380.374 441.642 382.853 448.426 383.086 450.92C383.32 453.413 387.204 472.674 387.204 472.674C387.204 472.674 387.689 475.798 389.937 475.583C392.184 475.365 393.429 474.094 393.429 474.094C393.429 474.094 393.177 460.027 392.716 453.669C392.191 446.411 387.829 439.384 387.675 437.854C387.521 436.32 382.746 424.099 382.656 422.239C382.565 420.383 376.71 412.965 377.595 410.212C378.481 407.463 380.903 404.249 381.81 401.52C383.27 397.132 381.401 389.483 381.401 389.483L361.696 392.489Z" fill="#2A425D"/>
</g>
<path fill-rule="evenodd" clip-rule="evenodd" d="M411.104 340.977C411.104 340.977 414.473 340.139 416.467 343.02C418.46 345.901 422.489 362.838 422.34 364.982C422.191 367.126 422.495 367.898 422.595 369.577C422.695 371.26 421.952 379.312 421.063 382.093C420.174 384.873 418.254 392.309 418.254 392.309H413.913C413.913 392.309 414.37 374.602 414.424 373.411C414.477 372.22 415.499 370.211 415.19 369.325C414.881 368.438 413.38 360.941 413.147 359.874C412.914 358.808 408.056 351.196 408.04 347.615C408.024 344.034 411.104 340.977 411.104 340.977Z" fill="#0644BF"/>
<path fill-rule="evenodd" clip-rule="evenodd" d="M398.848 343.276C398.848 343.276 391.729 346.431 389.911 348.637C388.092 350.843 384.885 358.219 386.591 361.661C388.297 365.103 389.784 367.133 390.166 368.812C390.548 370.495 391.014 374.737 389.655 378.006C388.297 381.275 387.205 385.857 386.591 387.966C385.977 390.078 385.314 393.33 385.314 393.33C385.314 393.33 389.198 391.914 391.953 392.565C394.709 393.216 398.909 395.384 403.699 394.608C408.489 393.829 414.68 392.052 414.68 392.052C414.68 392.052 415.071 388.17 414.169 386.435C413.267 384.7 411.314 378.394 411.36 376.219C411.406 374.041 413.603 359.4 414.935 356.044C416.267 352.685 417.347 348.858 416.978 346.85C416.608 344.841 415.48 343.349 414.68 342.764C413.879 342.178 412.324 340.727 410.339 340.977C408.353 341.222 398.848 343.276 398.848 343.276Z" fill="#2D67F7"/>
<mask id="mask9" mask-type="alpha" maskUnits="userSpaceOnUse" x="385" y="340" width="33" height="55">
<path fill-rule="evenodd" clip-rule="evenodd" d="M398.848 343.276C398.848 343.276 391.729 346.431 389.911 348.637C388.092 350.843 384.885 358.219 386.591 361.661C388.297 365.103 389.784 367.133 390.166 368.812C390.548 370.495 391.014 374.737 389.655 378.006C388.297 381.275 387.205 385.857 386.591 387.966C385.977 390.078 385.314 393.33 385.314 393.33C385.314 393.33 389.198 391.914 391.953 392.565C394.709 393.216 398.909 395.384 403.699 394.608C408.489 393.829 414.68 392.052 414.68 392.052C414.68 392.052 415.071 388.17 414.169 386.435C413.267 384.7 411.314 378.394 411.36 376.219C411.406 374.041 413.603 359.4 414.935 356.044C416.267 352.685 417.347 348.858 416.978 346.85C416.608 344.841 415.48 343.349 414.68 342.764C413.879 342.178 412.324 340.727 410.339 340.977C408.353 341.222 398.848 343.276 398.848 343.276Z" fill="white"/>
</mask>
<g mask="url(#mask9)">
<path fill-rule="evenodd" clip-rule="evenodd" d="M392.209 345.316C392.209 345.316 398.549 346.001 398.848 350.171C399.147 354.34 398.445 361.924 398.082 365.747C397.719 369.574 398.405 374.19 399.103 378.519C399.802 382.844 400.745 394.31 400.125 395.629C399.504 396.945 385.059 395.882 385.059 395.882C385.059 395.882 377.576 397.216 378.931 395.117C380.286 393.018 387.016 378.457 387.102 377.497C387.188 376.535 387.348 364.691 387.357 364.217C387.366 363.742 392.209 345.316 392.209 345.316Z" fill="#0644BF"/>
</g>
<path fill-rule="evenodd" clip-rule="evenodd" d="M394.251 346.85C394.251 346.85 397.321 346.988 398.082 350.424C398.843 353.859 395.085 360.072 393.485 362.683C391.885 365.294 386.043 372.092 384.548 372.898C383.053 373.705 381.192 374.547 380.973 374.942C380.754 375.34 376.19 379.485 373.057 381.071C369.925 382.661 363.865 385.67 363.865 385.67C363.865 385.67 361.939 384.333 361.567 382.093C361.194 379.852 361.311 379.54 361.311 379.54C361.311 379.54 367.419 376.458 369.227 374.942C371.036 373.428 377.232 369.487 377.909 369.577C378.586 369.671 384.455 360.141 385.314 358.087C386.174 356.034 389.388 349.018 390.421 348.128C392.409 346.417 394.251 346.85 394.251 346.85Z" fill="#2D67F7"/>
<path fill-rule="evenodd" clip-rule="evenodd" d="M407.867 338.684V342.067C407.803 342.081 403.211 347.123 398.264 343.861C398.529 341.96 397.81 339.81 397.363 338.376C397.399 338.314 398.287 336.774 398.229 336.872L398.717 335.332L400.246 330.482L407.241 336.609L407.867 338.684Z" fill="#AB7C5B"/>
<path fill-rule="evenodd" clip-rule="evenodd" d="M403.048 339.612C398.004 341.78 398.264 345.395 398.264 345.395C398.53 343.494 397.811 339.81 397.363 338.376C397.742 338.376 400.574 331.964 400.574 331.964C400.574 331.964 404.876 334.645 403.048 339.612Z" fill="#956A4D"/>
<path fill-rule="evenodd" clip-rule="evenodd" d="M394.889 321.586C394.889 321.586 392.886 324.249 393.278 325.734C393.67 327.219 394.446 328.746 394.058 329.795C393.67 330.842 392.915 332.196 393.445 333.593C393.974 334.99 394.889 339.183 394.889 339.751C394.889 340.319 400.111 339.879 401.329 338.265C402.547 336.65 403.679 334.541 403.505 334.525C403.331 334.51 402.683 330.692 401.986 330.298C401.291 329.905 397.543 326.258 397.543 326.258L394.889 321.586Z" fill="#AB7C5B"/>
<path fill-rule="evenodd" clip-rule="evenodd" d="M414.169 345.572C411.408 348.457 397.585 348.609 396.505 345.416C401.032 343.636 401.869 342.209 401.121 336.585C404.777 331.193 399.851 329.347 399.207 334.214C399.189 334.344 399.005 334.344 398.98 334.214C398.753 333.052 398.44 332.282 398.035 331.962C395.453 329.925 393.742 326.608 393.76 323.629V323.617C393.778 321.438 394.722 319.438 396.937 318.256C403.023 315.019 410.26 316.951 412.426 323.45C412.659 324.134 412.831 324.872 412.941 325.66C412.947 325.672 412.947 325.685 412.947 325.697C414.23 335.366 411.36 332.195 413.913 344.298" fill="#162B43"/>
<path fill-rule="evenodd" clip-rule="evenodd" d="M412.426 323.451C412.629 335.267 396.661 330.639 393.803 324.257C393.796 324.22 393.796 324.188 393.791 324.152C393.772 323.979 393.784 323.795 393.76 323.629V323.617C393.778 321.437 394.723 319.437 396.937 318.256C403.023 315.019 410.261 316.951 412.426 323.451Z" fill="#2A3A52"/>
<path fill-rule="evenodd" clip-rule="evenodd" d="M116.71 403.799L116.284 408.484L120.974 409.336L122.253 407.632C122.253 407.632 122.137 407.044 121.827 405.928C121.517 404.813 121.4 402.947 121.4 402.947L116.71 403.799ZM131.633 397.406V399.962C131.633 399.962 132.247 401.26 132.912 401.669C133.578 402.074 133.372 403.127 134.192 402.095C135.011 401.063 135.738 400.516 136.323 400.388C136.909 400.26 137.368 401.066 137.602 400.388C137.837 399.712 137.528 399.73 137.176 399.11C136.825 398.49 136.323 396.554 136.323 396.554L132.06 396.128L131.633 397.406Z" fill="#FDE3B1"/>
<path fill-rule="evenodd" clip-rule="evenodd" d="M143.572 329.232C143.572 329.232 142.277 343.775 141.44 351.39C140.604 359.001 139.059 364.84 138.882 367.579C138.706 370.322 138.839 372.372 138.456 374.824C138.073 377.276 137.703 388.728 137.603 390.591C137.504 392.447 137.603 396.554 137.603 396.554C137.603 396.554 135.535 397.874 132.913 397.406C130.291 396.939 129.928 396.128 129.928 396.128C129.928 396.128 129.092 376.739 129.502 373.972C129.912 371.205 130.671 370.873 130.355 368.857C130.038 366.842 128.779 357.737 128.649 354.797C128.52 351.857 128.649 342.016 128.649 342.016L129.076 336.049L131.207 330.51L140.161 326.676L143.572 329.232Z" fill="#1F324F"/>
<path fill-rule="evenodd" clip-rule="evenodd" d="M130.78 399.536C130.78 399.536 129.826 401.08 129.927 402.095C130.029 403.106 130.354 404.225 130.354 404.225C130.354 404.225 141.981 417.294 147.835 413.173C151.072 410.891 143.091 405.877 141.866 405.077C140.641 404.277 139.024 402.355 138.881 401.669C138.738 400.983 138.019 398.926 137.602 399.11C137.186 399.293 138.136 399.55 136.75 399.962C135.363 400.374 134.775 401.44 134.191 401.669C133.607 401.894 133.399 401.669 132.912 401.243C132.426 400.814 130.78 399.536 130.78 399.536Z" fill="#C1D5EB"/>
<path fill-rule="evenodd" clip-rule="evenodd" d="M130.78 398.258C130.78 398.258 129.826 399.802 129.927 400.814C130.029 401.828 130.354 402.947 130.354 402.947C130.354 402.947 141.981 416.013 147.835 411.895C151.072 409.613 143.091 404.599 141.866 403.799C140.641 402.999 139.024 401.073 138.881 400.388C138.738 399.702 138.019 397.648 137.602 397.832C137.186 398.016 138.136 398.272 136.75 398.684C135.363 399.096 134.775 400.163 134.191 400.388C133.607 400.616 133.399 400.391 132.912 399.962C132.426 399.536 130.78 398.258 130.78 398.258Z" fill="#F7FBFF"/>
<mask id="mask10" mask-type="alpha" maskUnits="userSpaceOnUse" x="129" y="397" width="20" height="16">
<path fill-rule="evenodd" clip-rule="evenodd" d="M130.78 398.258C130.78 398.258 129.826 399.802 129.927 400.814C130.029 401.828 130.354 402.947 130.354 402.947C130.354 402.947 141.981 416.013 147.835 411.895C151.072 409.613 143.091 404.599 141.866 403.799C140.641 402.999 139.024 401.073 138.881 400.388C138.738 399.702 138.019 397.648 137.602 397.832C137.186 398.016 138.136 398.272 136.75 398.684C135.363 399.096 134.775 400.163 134.191 400.388C133.607 400.616 133.399 400.391 132.912 399.962C132.426 399.536 130.78 398.258 130.78 398.258Z" fill="white"/>
</mask>
<g mask="url(#mask10)">
<path fill-rule="evenodd" clip-rule="evenodd" d="M140.16 401.243C140.16 401.243 138.942 400.544 137.175 401.669C135.41 402.794 135.47 403.373 135.47 403.373L136.323 403.799C136.323 403.799 137.031 402.337 138.455 402.095C139.878 401.849 140.587 401.669 140.587 401.669L140.16 401.243Z" fill="#1F324F"/>
<path fill-rule="evenodd" clip-rule="evenodd" d="M142.292 402.947C142.292 402.947 141.073 402.247 139.307 403.373C137.542 404.498 137.602 405.077 137.602 405.077L138.455 405.503C138.455 405.503 139.163 404.041 140.587 403.799C142.009 403.553 142.718 403.373 142.718 403.373L142.292 402.947Z" fill="#1F324F"/>
</g>
<path fill-rule="evenodd" clip-rule="evenodd" d="M115.431 406.354C115.431 406.354 114.477 407.899 114.579 408.91C114.68 409.925 115.005 411.04 115.005 411.04C115.005 411.04 126.632 424.109 132.486 419.988C135.723 417.71 127.742 412.695 126.517 411.895C125.292 411.092 123.675 409.17 123.532 408.484C123.389 407.798 122.67 405.745 122.254 405.928C121.837 406.112 122.788 406.368 121.401 406.78C120.014 407.192 119.427 408.259 118.842 408.484C118.258 408.709 118.05 408.488 117.563 408.058C117.077 407.632 115.431 406.354 115.431 406.354Z" fill="#C1D5EB"/>
<path fill-rule="evenodd" clip-rule="evenodd" d="M115.431 405.077C115.431 405.077 114.477 406.618 114.579 407.632C114.68 408.647 115.005 409.762 115.005 409.762C115.005 409.762 126.632 422.831 132.486 418.71C135.723 416.432 127.742 411.417 126.517 410.614C125.292 409.814 123.675 407.892 123.532 407.206C123.389 406.521 122.67 404.467 122.254 404.651C121.837 404.834 122.788 405.09 121.401 405.502C120.014 405.915 119.427 406.981 118.842 407.206C118.258 407.431 118.05 407.21 117.563 406.78C117.077 406.351 115.431 405.077 115.431 405.077Z" fill="#F7FBFF"/>
<mask id="mask11" mask-type="alpha" maskUnits="userSpaceOnUse" x="114" y="404" width="20" height="16">
<path fill-rule="evenodd" clip-rule="evenodd" d="M115.431 405.077C115.431 405.077 114.477 406.618 114.579 407.632C114.68 408.647 115.005 409.762 115.005 409.762C115.005 409.762 126.632 422.831 132.486 418.71C135.723 416.432 127.742 411.417 126.517 410.614C125.292 409.814 123.675 407.892 123.532 407.206C123.389 406.521 122.67 404.467 122.254 404.651C121.837 404.834 122.788 405.09 121.401 405.502C120.014 405.915 119.427 406.981 118.842 407.206C118.258 407.431 118.05 407.21 117.563 406.78C117.077 406.351 115.431 405.077 115.431 405.077Z" fill="white"/>
</mask>
<g mask="url(#mask11)">
<path fill-rule="evenodd" clip-rule="evenodd" d="M124.811 408.058C124.811 408.058 123.593 407.359 121.827 408.484C120.061 409.61 120.121 410.188 120.121 410.188L120.974 410.614C120.974 410.614 121.682 409.156 123.106 408.91C124.529 408.668 125.238 408.484 125.238 408.484L124.811 408.058Z" fill="#1F324F"/>
<path fill-rule="evenodd" clip-rule="evenodd" d="M126.943 409.762C126.943 409.762 125.724 409.062 123.959 410.188C122.193 411.313 122.253 411.895 122.253 411.895L123.106 412.321C123.106 412.321 123.814 410.86 125.238 410.614C126.661 410.371 127.369 410.188 127.369 410.188L126.943 409.762Z" fill="#1F324F"/>
</g>
<path fill-rule="evenodd" clip-rule="evenodd" d="M138.028 391.443C138.028 391.443 137.684 393.039 135.47 393.147C133.256 393.254 129.831 393.025 129.501 392.295C129.171 391.561 129.501 396.128 129.501 396.128C129.501 396.128 129.934 398.185 133.338 398.258C136.743 398.331 138.455 396.98 138.455 396.98L138.028 391.443Z" fill="#2A425D"/>
<path fill-rule="evenodd" clip-rule="evenodd" d="M115.431 329.232C115.431 329.232 114.873 334.859 114.579 341.59C114.285 348.318 115.187 361.751 115.431 365.024C115.676 368.296 115.22 373.352 115.005 375.25C114.791 377.148 114.807 390.141 115.431 394.424C116.056 398.708 115.858 404.225 115.858 404.225C115.858 404.225 117.924 405.312 120.122 405.077C122.319 404.841 123.532 404.225 123.532 404.225C123.53 404.038 123.285 377.497 123.478 377.29C124.297 376.413 125.136 374.793 124.812 371.842C124.487 368.888 125.717 366.53 126.517 362.894C127.317 359.254 131.381 346.396 131.633 342.016C131.886 337.635 132.06 332.215 132.06 332.215L123.106 330.51L115.431 329.232Z" fill="#1F324F"/>
<path fill-rule="evenodd" clip-rule="evenodd" d="M115.431 329.232C115.431 329.232 114.873 334.859 114.579 341.59C114.285 348.318 115.187 361.751 115.431 365.024C115.676 368.296 115.22 373.352 115.005 375.25C114.791 377.148 114.807 390.141 115.431 394.424C116.056 398.708 115.858 404.225 115.858 404.225C115.858 404.225 117.924 405.312 120.122 405.077C122.319 404.841 123.532 404.225 123.532 404.225C123.53 404.038 123.285 377.844 123.478 377.636C124.297 376.76 125.449 373.529 125.124 370.575C124.799 367.621 125.717 366.53 126.517 362.894C127.317 359.254 131.381 346.396 131.633 342.016C131.886 337.635 135.044 327.954 135.044 327.954L123.106 330.51L115.431 329.232Z" fill="#2A425D"/>
<mask id="mask12" mask-type="alpha" maskUnits="userSpaceOnUse" x="114" y="327" width="22" height="79">
<path fill-rule="evenodd" clip-rule="evenodd" d="M115.431 329.232C115.431 329.232 114.873 334.859 114.579 341.59C114.285 348.318 115.187 361.751 115.431 365.024C115.676 368.296 115.22 373.352 115.005 375.25C114.791 377.148 114.807 390.141 115.431 394.424C116.056 398.708 115.858 404.225 115.858 404.225C115.858 404.225 117.924 405.312 120.122 405.077C122.319 404.841 123.532 404.225 123.532 404.225C123.53 404.038 123.285 377.844 123.478 377.636C124.297 376.76 125.449 373.529 125.124 370.575C124.799 367.621 125.717 366.53 126.517 362.894C127.317 359.254 131.381 346.396 131.633 342.016C131.886 337.635 135.044 327.954 135.044 327.954L123.106 330.51L115.431 329.232Z" fill="white"/>
</mask>
<g mask="url(#mask12)">
<path fill-rule="evenodd" clip-rule="evenodd" d="M121.827 332.641C121.827 332.641 122.48 335.661 119.695 337.753C116.91 339.848 114.152 340.312 114.152 340.312L114.579 328.806H119.269L123.106 333.493" fill="#1F324F"/>
</g>
<path fill-rule="evenodd" clip-rule="evenodd" d="M123.959 400.388C123.959 400.388 121.072 401.918 119.269 401.669C117.466 401.416 115.432 400.814 115.432 400.814V404.225C115.432 404.225 117.037 404.952 119.269 405.077C121.501 405.201 124.386 404.225 124.386 404.225L123.959 400.388Z" fill="#1F324F"/>
<path fill-rule="evenodd" clip-rule="evenodd" d="M155.892 303.707C155.892 303.707 163.915 303.26 164.8 302.79C165.685 302.32 165.456 301.783 165.738 300.497C166.019 299.212 165.85 299.913 166.206 298.663C166.563 297.413 166.262 294.481 167.144 294.536C168.026 294.591 168.741 293.535 168.55 295.453C168.361 297.372 167.194 298.301 168.55 298.205C169.908 298.108 170.478 297.279 171.363 298.205C172.249 299.13 172.228 299.487 172.301 301.414C172.374 303.342 173.088 305.264 171.832 306C170.576 306.736 169.935 306.934 168.082 306.917C166.228 306.9 164.513 307.378 162.925 307.834C161.336 308.29 157.825 308.517 156.361 308.751C154.898 308.985 151.673 307.376 151.673 307.376L155.892 303.707Z" fill="#FDE3B1"/>
<path fill-rule="evenodd" clip-rule="evenodd" d="M135.044 275.119C135.044 275.119 137.093 274.268 139.308 276.397C141.523 278.525 146.04 289.642 146.556 293.867C147.094 298.276 147.258 302.482 151.123 302.093C152.11 301.993 157.398 302.344 158.068 302.388C158.737 302.433 159.773 302.388 159.773 302.388C159.773 302.388 159.365 304.295 159.347 306.223C159.329 308.151 160.199 310.058 160.199 310.058C160.199 310.058 149.038 310.55 146.982 310.484C144.926 310.419 142.702 310.042 141.866 307.075C141.029 304.109 136.323 289.18 136.323 289.18L135.044 275.119Z" fill="#0644BF"/>
<path fill-rule="evenodd" clip-rule="evenodd" d="M141.439 281.51C140.449 279.253 137.288 275.551 136.323 275.545C135.358 275.539 134.618 275.545 134.618 275.545C134.618 275.545 114.588 284.346 113.726 284.919C112.863 285.492 111.768 286.449 110.315 290.032C108.862 293.614 107.33 301.11 107.33 301.11C107.33 301.11 108.638 302.328 111.167 303.24C113.697 304.153 115.005 304.093 115.005 304.093L114.152 310.058L115.005 330.936C115.005 330.936 117.026 331.095 118.842 332.641C120.658 334.187 126.109 335.189 129.928 334.771C133.746 334.353 138.693 330.374 141.013 330.51C143.333 330.646 144.424 330.084 144.424 330.084L141.866 304.093C141.866 304.093 144.145 287.671 141.439 281.51Z" fill="#2D67F7"/>
<mask id="mask13" mask-type="alpha" maskUnits="userSpaceOnUse" x="107" y="275" width="38" height="60">
<path fill-rule="evenodd" clip-rule="evenodd" d="M141.439 281.51C140.449 279.253 137.288 275.551 136.323 275.545C135.358 275.539 134.618 275.545 134.618 275.545C134.618 275.545 114.588 284.346 113.726 284.919C112.863 285.492 111.768 286.449 110.315 290.032C108.862 293.614 107.33 301.11 107.33 301.11C107.33 301.11 108.638 302.328 111.167 303.24C113.697 304.153 115.005 304.093 115.005 304.093L114.152 310.058L115.005 330.936C115.005 330.936 117.026 331.095 118.842 332.641C120.658 334.187 126.109 335.189 129.928 334.771C133.746 334.353 138.693 330.374 141.013 330.51C143.333 330.646 144.424 330.084 144.424 330.084L141.866 304.093C141.866 304.093 144.145 287.671 141.439 281.51Z" fill="white"/>
</mask>
<g mask="url(#mask13)">
<path fill-rule="evenodd" clip-rule="evenodd" d="M120.974 281.639C120.974 281.639 123.008 283.573 125.797 285.009C128.586 286.443 130.938 287.406 132.847 285.757C134.756 284.109 136.818 281.765 135.444 280.141C134.07 278.517 129.686 276.496 129.507 276.397C129.329 276.298 120.974 281.639 120.974 281.639Z" fill="#0543BF"/>
<path fill-rule="evenodd" clip-rule="evenodd" d="M115.858 283.214C115.858 283.214 120.29 284.066 121.4 288.753C123.294 296.751 122.711 303.561 121.827 306.649C120.344 311.828 120.848 322.126 121.4 327.102C121.953 332.077 122.253 336.05 122.253 336.05C122.253 336.05 109.156 334.786 109.036 334.345C108.915 333.905 110.702 305.902 110.741 305.797C110.78 305.693 108.555 287.471 108.609 287.049C108.664 286.627 115.858 283.214 115.858 283.214Z" fill="#0543BF"/>
</g>
<path fill-rule="evenodd" clip-rule="evenodd" d="M119.578 314.745C119.578 314.745 123.309 315.873 125.247 317.092C127.185 318.31 128.356 318.525 129.026 318.5C129.695 318.475 130.707 316.875 131.388 316.153C132.068 315.432 133.217 314.997 133.277 315.214C133.337 315.432 133.321 315.805 132.805 316.153C132.289 316.501 132.355 316.559 132.805 317.092C133.255 317.625 134.513 317.765 135.167 317.092C135.82 316.419 137.333 315.284 137.529 316.153C137.724 317.022 137.596 319.737 136.584 320.847C135.572 321.957 134.439 323.972 131.86 323.663C129.281 323.355 129.143 322.389 128.081 322.255C127.019 322.121 122.015 321.907 119.106 321.317C116.197 320.726 112.021 318.5 112.021 318.5L119.578 314.745Z" fill="#FDE3B1"/>
<path fill-rule="evenodd" clip-rule="evenodd" d="M114.032 284.919C114.032 284.919 112.301 284.7 110.846 288.077C109.391 291.455 105.374 308.397 104.929 310.64C104.485 312.883 103.871 313.715 104.929 314.701C105.987 315.688 115.463 321.607 118.128 322.372C120.794 323.137 122.68 314.701 122.68 314.701C122.68 314.701 119.414 313.83 117.673 312.896C115.932 311.963 114.633 310.894 114.487 310.64C114.341 310.385 116.851 306.498 117.673 304.322C118.496 302.147 121.773 292.596 119.494 288.98C117.214 285.364 114.032 284.919 114.032 284.919Z" fill="#2D67F7"/>
<path fill-rule="evenodd" clip-rule="evenodd" d="M133.648 280.133C133.426 284.115 130.582 287.115 122.816 281.053C122.873 280.986 122.93 280.913 122.987 280.835C122.987 280.824 122.992 280.819 123.002 280.809C123.806 279.592 124.151 276.779 124.3 274.783C124.326 274.351 124.151 273.925 124.13 273.592C124.126 273.555 124.126 273.519 124.126 273.483C124.151 272.916 123.986 272.64 123.986 272.64L133.602 271.845V278.479C133.617 278.64 133.632 278.802 133.643 278.963C133.668 279.358 133.668 279.748 133.648 280.133Z" fill="#FCE2B0"/>
<path fill-rule="evenodd" clip-rule="evenodd" d="M133.648 280.133C133.622 280.149 133.607 280.154 133.607 280.154C133.607 280.154 126.016 277.05 123.002 280.809C123.806 279.592 124.151 276.779 124.301 274.783C124.327 274.351 124.151 273.925 124.131 273.592C124.249 273.265 124.316 273.072 124.316 273.072L127.089 274.575L131.556 277.627C131.556 277.627 132.762 278.396 133.643 278.963L133.648 280.133Z" fill="#EACF9C"/>
<path fill-rule="evenodd" clip-rule="evenodd" d="M136.622 271.351C136.632 271.762 136.508 272.323 136.385 272.952C136.318 273.306 136.251 273.68 136.21 274.055C136.189 274.221 136.179 274.388 136.168 274.554C136.101 276.161 136.225 277.762 135.705 278.402C135.664 278.448 135.617 278.495 135.571 278.531C135.53 278.563 135.489 278.589 135.442 278.61C134.071 279.264 133.092 279.447 132.046 278.937C131.237 278.547 128.475 277.159 127.254 276.551C126.837 276.342 126.46 276.057 126.141 275.714C125.93 275.49 125.682 275.214 125.435 274.918C125.185 274.62 124.939 274.298 124.739 273.985C124.532 273.659 124.406 273.546 124.348 273.276C123.394 273.255 121.292 270.181 121.292 270.181L125.115 262.476L128.656 261.748L135.659 262.861C135.659 262.861 136.39 264.264 136.405 265.174C136.426 266.084 136.142 266.828 136.142 268.159C136.142 269.49 136.586 269.495 136.622 271.351Z" fill="#FCE2B0"/>
<path fill-rule="evenodd" clip-rule="evenodd" d="M126.093 264.323C126.093 264.323 126.284 265.011 126.284 266.083C125.984 267.101 125.221 267.266 126.12 270.788C125.33 271.31 125.166 271.173 125.166 271.173C125.012 268.604 123.899 267.613 123.185 268.268C122.472 268.924 122.436 271.229 124.347 273.276C124.447 274.233 124.42 275.065 124.232 275.748C123.77 275.175 123.406 274.503 123.181 273.69C123.181 273.69 118.868 271.148 119.304 264.298C119.741 257.449 121.403 258.739 121.403 258.739L124.43 259.977L126.093 264.323Z" fill="#2A3A52"/>
<path fill-rule="evenodd" clip-rule="evenodd" d="M137.018 265.148C133.776 266.235 130.721 265.606 126.387 264.94C126.217 264.919 126.099 264.899 126.036 264.888H126.006C125.995 264.888 125.99 264.883 125.99 264.883C121.44 264.202 118.853 261.29 120.435 258.789C123.573 253.819 130.479 256.226 134.642 259.439C137.616 261.727 139.192 264.426 137.018 265.148Z" fill="#162B43"/>
<path fill-rule="evenodd" clip-rule="evenodd" d="M121.175 263.638C121.175 263.638 122.348 262.99 123.787 263.392C121.431 262.642 120.561 263.216 120.561 263.216L121.175 263.638ZM120.702 262.486C120.702 262.486 122.429 261.532 124.546 262.123C121.078 261.02 119.799 261.863 119.799 261.863L120.702 262.486Z" fill="#2A3A52"/>
<path fill-rule="evenodd" clip-rule="evenodd" d="M137.017 265.148C133.776 266.235 130.72 265.606 126.387 264.94C127.86 265.143 133.05 265.694 135.43 263.957C138.223 261.925 134.606 259.439 134.606 259.439H134.642C137.615 261.727 139.192 264.426 137.017 265.148Z" fill="#2A3A52"/>
<path fill-rule="evenodd" clip-rule="evenodd" d="M247.527 377.875C254.534 378.56 258.978 384.34 257.384 391.069C255.711 398.137 248.081 403.525 240.422 402.777C232.762 402.029 228.538 395.477 230.88 388.471C233.108 381.802 240.519 377.186 247.527 377.875Z" fill="#FF6F61"/>
<path fill-rule="evenodd" clip-rule="evenodd" d="M246.08 382.013C250.493 382.446 253.222 386.106 252.147 390.3C251.039 394.625 246.336 397.863 241.674 397.406C237.012 396.949 234.367 392.994 235.729 388.693C237.049 384.52 241.668 381.58 246.08 382.013Z" fill="#F7FBFF"/>
<path fill-rule="evenodd" clip-rule="evenodd" d="M283.053 384.479C290.06 385.168 295.195 391.013 294.491 397.822C293.752 404.976 286.915 410.441 279.256 409.689C271.596 408.941 266.58 402.317 267.986 395.224C269.325 388.472 276.046 383.79 283.053 384.479Z" fill="#FFD739"/>
<path fill-rule="evenodd" clip-rule="evenodd" d="M282.16 388.669C286.572 389.102 289.74 392.804 289.221 397.049C288.686 401.43 284.46 404.709 279.798 404.252C275.136 403.795 272.014 399.795 272.803 395.442C273.568 391.218 277.748 388.236 282.16 388.669Z" fill="#F7FBFF"/>
<path fill-rule="evenodd" clip-rule="evenodd" d="M318.58 384.853C325.588 385.538 331.412 391.45 331.598 398.341C331.793 405.586 325.75 411.119 318.089 410.371C310.43 409.623 304.621 402.923 305.093 395.744C305.543 388.911 311.572 384.164 318.58 384.853Z" fill="#C1D5EB"/>
<path fill-rule="evenodd" clip-rule="evenodd" d="M318.24 389.095C322.652 389.528 326.258 393.271 326.295 397.569C326.333 402.001 322.585 405.322 317.922 404.869C313.26 404.412 309.661 400.367 309.876 395.958C310.086 391.682 313.828 388.662 318.24 389.095Z" fill="#F7FBFF"/>
<defs>
<linearGradient id="paint0_linear" x1="383" y1="473.559" x2="389.349" y2="540.258" gradientUnits="userSpaceOnUse">
<stop stop-color="#E3EFF9"/>
<stop offset="0.13" stop-color="#E3EFF9"/>
<stop offset="0.74" stop-color="#E3EFF9" stop-opacity="0.01"/>
<stop offset="1" stop-color="#E3EFF9" stop-opacity="0.01"/>
</linearGradient>
<linearGradient id="paint1_linear" x1="440.158" y1="306.151" x2="450.208" y2="379.516" gradientUnits="userSpaceOnUse">
<stop stop-color="#FFD739"/>
<stop offset="0.133868" stop-color="#E3B913"/>
<stop offset="0.398427" stop-color="#E3EFF9" stop-opacity="0.01"/>
<stop offset="1" stop-color="#E3EFF9" stop-opacity="0.01"/>
</linearGradient>
<linearGradient id="paint2_linear" x1="72.6582" y1="410.933" x2="86.9621" y2="506.673" gradientUnits="userSpaceOnUse">
<stop stop-color="#FF6F61"/>
<stop offset="0.172401" stop-color="#F13C2A"/>
<stop offset="0.419236" stop-color="#FF6F61" stop-opacity="0.01"/>
<stop offset="1" stop-color="#E3EFF9" stop-opacity="0.01"/>
</linearGradient>
</defs>
</svg>
